<svg xmlns="http://www.w3.org/2000/svg" viewBox="0 0 1129.000000 417.000000" width="100%" height="auto" style="background:transparent">
  <!-- main amber fill -->
  <g transform="translate(0,417) scale(0.1,-0.1)" fill="#cc9933" stroke="none">
<path d="M190 3360 l0 -640 155 0 154 0 3 158 3 157 235 0 235 0 3 -62 3 -63
-216 0 -215 0 0 -100 0 -100 -180 0 -180 0 0 -160 0 -160 20 0 19 0 3 -97 3
-98 505 0 505 0 3 157 3 157 77 3 77 3 2 198 3 197 -60 0 -60 0 0 65 0 65 -20
0 -20 0 0 60 0 59 78 3 77 3 3 193 2 192 -60 0 -60 0 0 65 0 65 -20 0 -20 0 0
95 0 95 -55 0 -54 0 -3 63 -3 62 -472 3 -473 2 0 -640z m1040 405 l0 -85 -15
0 -15 0 0 70 0 70 -30 0 -30 0 0 15 0 15 45 0 45 0 0 -85z m-50 -25 l0 -60
-20 0 -20 0 0 60 0 60 20 0 20 0 0 -60z m-202 -127 l3 -63 -216 0 -215 0 0
-95 0 -95 -25 0 -25 0 0 153 0 154 7 7 7 6 230 -2 231 -3 3 -62z m0 -95 l-5
-13 -186 -3 -187 -2 0 -70 0 -70 -15 0 -15 0 0 85 0 85 206 0 206 0 -4 -12z
m402 -163 l0 -175 -75 0 -75 0 0 -70 0 -70 -15 0 -15 0 0 85 0 85 80 0 80 0 0
144 0 145 -32 3 -31 3 -5 13 -4 12 46 0 46 0 0 -175z m-400 65 l0 -60 -180 0
-180 0 0 60 0 60 180 0 180 0 0 -60z m360 -65 l0 -125 -80 0 -80 0 0 -95 0
-95 -20 0 -20 0 0 160 0 160 75 0 75 0 0 60 0 60 25 0 25 0 0 -125z m-362
-477 l-5 -13 -186 -3 -187 -2 0 -75 0 -75 -15 0 -15 0 0 90 0 90 206 0 206 0
-4 -12z m404 -78 l3 -90 -3 -90 -3 -90 -74 0 -74 0 -3 -157 -3 -158 -485 0
-485 0 0 84 0 84 13 5 12 4 0 -76 0 -76 460 0 460 0 0 160 0 160 80 0 80 0 0
149 0 150 -32 3 -31 3 -5 13 -4 12 45 0 46 0 3 -90z m-402 -20 l0 -60 155 0
155 0 0 60 0 60 25 0 25 0 0 -130 0 -130 -80 0 -80 0 0 -160 0 -160 -440 0
-440 0 0 65 0 65 420 0 421 0 -3 158 -3 157 -260 3 -260 2 3 65 4 65 179 0
179 0 0 -60z"/>
<path d="M1450 3841 l0 -160 23 -3 22 -3 3 -97 3 -98 54 0 55 0 0 -60 0 -60
20 0 19 0 3 -97 3 -98 58 -3 57 -3 0 -59 0 -60 20 0 19 0 3 -97 3 -98 53 -3
52 -3 0 -60 0 -59 160 0 160 0 0 160 0 160 80 0 80 0 0 160 0 160 80 0 80 0 0
160 0 160 80 0 80 0 0 60 0 60 20 0 20 0 0 -125 0 -125 -80 0 -80 0 0 -160 0
-160 -80 0 -80 0 0 -160 0 -160 -81 0 -81 0 4 -325 4 -325 -123 0 -123 0 0 65
0 65 100 0 100 0 0 160 0 161 -157 -3 -158 -3 -3 -157 -3 -158 26 0 25 0 0
-100 0 -100 190 0 190 0 0 325 0 325 80 0 80 0 0 160 0 160 80 0 80 0 0 160 0
159 78 3 77 3 3 193 2 192 -54 0 -55 0 -3 63 -3 62 -157 3 -158 3 0 -161 0
-160 -80 0 -80 0 0 -160 0 -160 -100 0 -100 0 0 95 0 95 -55 0 -54 0 -3 63 -3
62 -22 3 -23 3 0 95 0 94 -55 0 -55 0 0 65 0 65 -160 0 -160 0 0 -159z m410
-76 l0 -85 -15 0 -15 0 0 70 0 70 -30 0 -30 0 0 15 0 15 45 0 45 0 0 -85z
m948 -87 l-3 -173 -77 -3 -78 -3 0 -159 0 -160 -80 0 -80 0 0 -160 0 -160 -80
0 -80 0 0 -325 0 -325 -170 0 -170 0 0 91 0 91 13 -4 12 -5 3 -71 3 -72 145 0
145 0 -1 238 -1 237 1 88 0 87 75 0 75 0 0 160 0 160 80 0 80 0 0 160 0 160
80 0 80 0 0 145 0 145 -30 0 -30 0 0 15 0 15 45 0 45 0 -2 -172z m-998 62 l0
-60 -20 0 -20 0 0 60 0 60 20 0 20 0 0 -60z m-270 -135 l0 -75 35 0 35 0 0
-15 0 -15 -45 0 -45 0 0 90 0 90 10 0 10 0 0 -75z m70 10 l0 -65 -20 0 -20 0
0 65 0 65 20 0 20 0 0 -65z m410 -170 l0 -85 -15 0 -15 0 0 70 0 70 -30 0 -30
0 0 15 0 15 45 0 45 0 0 -85z m-50 -25 l0 -60 -20 0 -20 0 0 60 0 60 20 0 20
0 0 -60z m-270 -135 l0 -75 36 0 36 0 -4 -12 -5 -13 -41 -3 -42 -3 0 90 0 91
10 0 10 0 0 -75z m68 7 l3 -62 -26 0 -25 0 0 58 0 59 7 7 7 7 16 -3 15 -3 3
-63z m92 -327 l0 -75 30 0 30 0 0 -16 0 -15 -42 3 -43 3 -3 74 -3 74 5 14 5
13 11 0 10 0 0 -75z m60 10 l0 -65 -20 0 -20 0 0 65 0 65 20 0 20 0 0 -65z"/>
<path d="M2870 3360 l0 -640 160 0 160 0 0 160 0 160 235 0 235 0 0 -65 0 -65
-216 0 -215 0 1 -97 1 -98 0 -227 -1 -228 -120 0 -120 0 0 65 0 65 100 0 100
0 0 160 0 160 -160 0 -160 0 0 -159 0 -160 23 -3 22 -3 3 -97 3 -98 189 0 190
0 0 325 0 325 180 0 180 0 0 -60 0 -60 160 0 160 0 0 60 0 60 20 0 19 0 3 -62
3 -63 -3 -227 -3 -228 -119 0 -120 0 0 65 0 65 100 0 100 0 0 160 0 160 -160
0 -160 0 0 -159 0 -160 23 -3 22 -3 3 -97 3 -98 189 0 190 0 0 360 0 360 -55
0 -55 0 0 65 0 65 -25 0 -25 0 0 60 0 60 80 0 80 0 0 195 0 195 -55 0 -55 0 0
65 0 65 -25 0 -25 0 0 95 0 95 -55 0 -55 0 0 65 0 65 -475 0 -475 0 0 -640z
m1040 405 l0 -85 -10 0 -10 0 0 70 0 70 -35 0 -35 0 0 15 0 15 45 0 45 0 0
-85z m-40 -25 l0 -60 -25 0 -25 0 0 60 0 60 25 0 25 0 0 -60z m-210 -125 l0
-65 -215 0 -215 0 0 -95 0 -95 -20 0 -20 0 0 160 0 160 235 0 235 0 0 -65z m0
-100 l0 -15 -190 0 -190 0 0 -70 0 -70 -15 0 -15 0 0 85 0 85 205 0 205 0 0
-15z m410 -160 l0 -175 -80 0 -80 0 0 -70 0 -70 -10 0 -10 0 0 85 0 85 75 0
75 0 0 145 0 145 -30 0 -30 0 0 15 0 15 45 0 45 0 0 -175z m-410 65 l0 -60
-180 0 -180 0 0 60 0 60 180 0 180 0 0 -60z m360 -65 l0 -125 -80 0 -80 0 0
-95 0 -95 -20 0 -20 0 0 160 0 160 80 0 80 0 0 60 0 60 20 0 20 0 0 -125z
m-360 -480 l0 -15 -190 0 -190 0 0 -325 0 -325 -170 0 -170 0 0 90 0 90 10 0
10 0 0 -75 0 -75 145 0 145 0 0 325 0 325 205 0 205 0 0 -15z m410 -325 l0
-340 -170 0 -170 0 0 90 0 90 10 0 10 0 0 -75 0 -75 145 0 145 0 0 310 0 310
-30 0 -30 0 0 15 0 15 45 0 45 0 0 -340z"/>
<path d="M4290 3840 l0 -159 -77 -3 -78 -3 -3 -477 -2 -478 160 0 160 0 0 480
0 480 315 0 315 0 0 -65 0 -65 -295 0 -295 0 2 -420 3 -420 -102 0 -103 0 0
-65 0 -65 -20 0 -20 0 0 65 0 65 -10 0 -10 0 0 -75 0 -75 30 0 30 0 0 -15 0
-15 -45 0 -45 0 0 90 0 90 -10 0 -10 0 0 -100 0 -100 55 0 55 0 0 -59 0 -60
23 -3 22 -3 3 -97 3 -98 504 0 505 0 0 160 0 160 80 0 80 0 0 520 0 520 -55 0
-55 0 0 65 0 65 -25 0 -25 0 0 95 0 95 -55 0 -55 0 0 65 0 65 -475 0 -475 0 0
-160z m1040 -75 l0 -85 -10 0 -10 0 0 70 0 70 -35 0 -35 0 0 15 0 15 45 0 45
0 0 -85z m-40 -25 l0 -60 -25 0 -25 0 0 60 0 60 25 0 25 0 0 -60z m-210 -225
l0 -15 -270 0 -270 0 2 -395 3 -395 -15 0 -15 0 3 410 2 410 280 0 280 0 0
-15z m410 -485 l0 -500 -80 0 -80 0 0 -160 0 -160 -485 0 -485 0 0 90 0 90 10
0 10 0 0 -75 0 -75 465 0 465 0 0 160 0 160 75 0 75 0 0 470 0 470 -30 0 -30
0 0 15 0 15 45 0 45 0 0 -500z m-410 70 l0 -380 160 0 160 0 0 380 0 380 20 0
20 0 2 -382 3 -383 -3 -67 -3 -68 -81 0 -81 0 7 -160 7 -160 -441 0 -440 0 0
65 0 65 415 0 415 0 0 160 0 160 -340 0 -340 0 0 385 0 385 260 0 260 0 0
-380z"/>
<path d="M5557 3993 l-7 -6 0 -634 0 -633 160 0 160 0 2 318 3 317 78 3 77 3
0 -66 0 -65 -55 0 -55 0 0 -485 0 -485 -125 0 -125 0 0 65 0 65 100 0 100 0 0
160 0 161 -157 -3 -158 -3 -3 -157 -3 -158 26 0 25 0 0 -100 0 -100 193 2 192
3 2 260 2 260 1 223 0 222 20 0 20 0 0 -60 0 -60 20 0 19 0 3 -97 3 -98 58 -3
57 -3 0 -59 0 -60 155 0 155 0 0 60 0 60 25 0 25 0 0 -65 0 -64 -102 -3 -103
-3 -3 -62 -3 -63 -19 0 -20 0 0 65 0 65 -10 0 -10 0 0 -75 0 -75 30 0 30 0 0
-16 0 -15 -42 3 -43 3 -3 88 -3 87 -10 0 -10 0 3 -97 3 -98 53 -3 52 -3 0 -60
0 -59 25 0 25 0 0 -100 0 -100 350 0 350 0 0 840 0 840 -55 0 -55 0 0 65 0 65
-160 0 -160 0 0 -640 0 -640 160 0 160 0 0 540 0 540 20 0 20 0 2 -542 3 -543
-3 -227 -2 -228 -280 0 -280 0 0 65 0 65 260 0 260 0 0 160 0 160 -182 0 -183
0 3 100 3 100 -60 0 -61 0 0 65 0 65 -20 0 -20 0 0 95 0 95 -55 0 -54 0 -3 63
-3 62 -22 3 -23 3 0 95 0 94 -55 0 -55 0 0 65 0 65 -25 0 -25 0 0 95 0 95 -55
0 -55 0 0 65 0 65 -233 0 -234 0 -6 -7z m563 -228 l0 -85 -10 0 -10 0 0 70 0
70 -35 0 -35 0 0 15 0 15 45 0 45 0 0 -85z m950 -735 l0 -820 -330 0 -330 0 0
91 0 91 13 -4 12 -5 3 -71 3 -72 299 0 300 0 0 790 0 790 -30 0 -30 0 0 15 0
15 45 0 45 0 0 -820z m-990 710 l0 -60 -25 0 -25 0 0 60 0 60 25 0 25 0 0 -60z
m200 -295 l0 -85 -15 0 -15 0 0 70 0 70 -30 0 -30 0 0 15 0 15 45 0 45 0 0
-85z m-50 -25 l0 -60 -20 0 -20 0 0 60 0 60 20 0 20 0 0 -60z m-200 -225 l0
-15 -35 0 -36 0 1 -237 1 -238 -1 -247 0 -248 -170 0 -170 0 0 91 0 91 13 -4
12 -5 3 -71 3 -72 144 0 145 0 0 485 0 485 45 0 45 0 0 -15z m410 -70 l0 -85
-15 0 -15 0 0 70 0 70 -30 0 -30 0 0 15 0 15 45 0 45 0 0 -85z m-50 -25 l0
-60 -20 0 -20 0 0 60 0 60 20 0 20 0 0 -60z m-270 -135 l0 -75 36 0 36 0 -4
-12 -5 -13 -41 -3 -42 -3 0 90 0 91 10 0 10 0 0 -75z m68 7 l3 -62 -26 0 -25
0 0 58 0 59 7 7 7 7 16 -3 15 -3 3 -63z m404 -172 l3 -90 -12 0 -13 0 0 74 0
75 -32 3 -31 3 -5 13 -4 12 45 0 46 0 3 -90z"/>
<path d="M190 1270 l0 -800 20 0 19 0 3 -97 3 -98 190 0 190 0 3 318 2 317
235 0 235 0 0 195 0 195 -55 0 -55 0 0 65 0 65 -180 0 -180 0 0 60 0 60 393 2
392 3 3 193 2 192 -60 0 -60 0 0 65 0 65 -550 0 -550 0 0 -800z m1190 475 l0
-175 -390 0 -390 0 0 -70 0 -70 -15 0 -15 0 0 85 0 85 395 0 395 0 0 144 0
145 -32 3 -31 3 -5 13 -4 12 46 0 46 0 0 -175z m-40 0 l0 -125 -395 0 -395 0
0 -95 0 -95 -25 0 -26 0 3 158 3 157 393 3 392 2 0 60 0 60 25 0 25 0 0 -125z
m-270 -640 l0 -175 -235 0 -235 0 -2 -317 -3 -318 -170 0 -170 0 0 84 0 84 13
4 12 5 0 -76 0 -76 145 0 145 0 0 320 0 320 235 0 235 0 0 145 0 145 -30 0
-30 0 0 15 0 15 45 0 45 0 0 -175z m-50 0 l0 -125 -235 0 -235 0 0 -320 0
-320 -125 0 -125 0 0 65 0 65 100 0 100 0 2 318 3 317 238 3 237 2 0 60 0 60
20 0 20 0 0 -125z"/>
<path d="M1450 1271 l0 -800 23 -3 22 -3 3 -97 3 -98 584 0 585 0 0 195 0 195
-55 0 -54 0 -3 63 -3 62 -337 3 -338 2 0 60 0 60 235 0 235 0 0 195 0 195 -55
0 -55 0 0 65 0 65 -180 0 -180 0 0 60 0 60 395 0 395 0 0 195 0 195 -55 0 -54
0 -3 63 -3 62 -552 3 -553 2 0 -799z m1200 474 l0 -175 -395 0 -395 0 0 -70 0
-70 -15 0 -15 0 0 85 0 85 395 0 395 0 0 145 0 145 -30 0 -30 0 0 15 0 15 45
0 45 0 0 -175z m-50 0 l0 -125 -395 0 -395 0 0 -95 0 -95 -20 0 -20 0 0 160 0
160 395 0 395 0 0 60 0 60 20 0 20 0 0 -125z m-270 -640 l0 -175 -235 0 -235
0 0 -70 0 -70 -15 0 -15 0 0 85 0 85 240 0 240 0 0 145 0 145 -35 0 -35 0 0
15 0 15 45 0 45 0 0 -175z m-41 0 l0 -125 -239 0 -240 0 0 -95 0 -95 -20 0
-20 0 0 160 0 160 235 0 235 0 0 60 0 60 25 0 24 0 0 -125z m361 -640 l0 -175
-565 0 -565 0 0 90 0 90 10 0 10 0 0 -75 0 -75 540 0 540 0 0 145 0 145 -30 0
-30 0 0 15 0 15 45 0 45 0 0 -175z m-50 0 l0 -125 -515 0 -515 0 0 65 0 65
495 0 495 0 0 60 0 60 20 0 20 0 0 -125z"/>
<path d="M2717 2063 l-7 -6 0 -794 0 -793 25 0 25 0 0 -100 0 -100 190 0 190
0 0 320 0 320 180 0 180 0 0 -219 0 -220 23 -3 22 -3 3 -97 3 -98 189 0 190 0
0 355 0 355 -55 0 -55 0 0 65 0 65 -20 0 -20 0 0 60 0 60 75 0 75 0 0 195 0
195 -55 0 -55 0 0 65 0 65 -20 0 -20 0 0 95 0 95 -60 0 -60 0 0 65 0 65 -468
0 -469 0 -6 -7z m1033 -228 l0 -85 -10 0 -10 0 0 70 0 70 -35 0 -35 0 0 15 0
15 45 0 45 0 0 -85z m-40 -25 l0 -60 -25 0 -25 0 0 60 0 60 25 0 25 0 0 -60z
m-210 -125 l0 -65 -215 0 -215 0 0 -95 0 -95 -20 0 -20 0 0 160 0 160 235 0
235 0 0 -65z m0 -100 l0 -15 -190 0 -190 0 0 -70 0 -70 -10 0 -10 0 0 85 0 85
200 0 200 0 0 -15z m410 -160 l0 -175 -80 0 -80 0 0 -70 0 -70 -10 0 -10 0 0
85 0 85 80 0 80 0 0 145 0 145 -35 0 -35 0 0 15 0 15 45 0 45 0 0 -175z m-410
65 l0 -60 -180 0 -180 0 0 60 0 60 180 0 180 0 0 -60z m369 -65 l0 -125 -79 0
-80 0 0 -95 0 -95 -25 0 -25 0 0 160 0 160 80 0 80 0 0 60 0 60 25 0 24 0 0
-125z m-369 -380 l0 -65 -216 0 -217 0 5 -320 5 -320 -124 0 -123 0 0 65 0 65
100 0 100 0 0 320 0 320 235 0 235 0 0 -65z m0 -100 l0 -15 -190 0 -190 0 0
-320 0 -320 -170 0 -170 0 0 91 0 91 13 -4 12 -5 3 -71 3 -72 144 0 145 0 0
320 0 320 200 0 200 0 0 -15z m410 -320 l0 -335 -170 0 -170 0 0 90 0 90 10 0
10 0 0 -75 0 -75 150 0 150 0 0 305 0 305 -35 0 -35 0 0 15 0 15 45 0 45 0 0
-335z m-45 0 l0 -285 -122 0 -123 0 0 65 0 65 100 0 100 0 0 220 0 220 23 0
22 0 0 -285z"/>
<path d="M4137 2063 l-7 -6 0 -154 0 -153 -75 0 -75 0 0 -480 0 -480 20 0 19
0 3 -97 3 -98 53 -3 52 -3 0 -60 0 -59 25 0 25 0 0 -100 0 -100 508 2 507 3 3
157 3 158 74 0 75 0 0 355 0 355 -55 0 -55 0 0 65 0 65 -235 0 -235 0 0 -160
0 -160 75 0 75 0 0 -160 0 -160 -255 0 -255 0 0 380 0 380 393 2 392 3 3 193
2 192 -60 0 -60 0 0 65 0 65 -468 0 -469 0 -6 -7z m1033 -318 l0 -175 -395 0
-395 0 0 -390 0 -390 -10 0 -10 0 0 405 0 405 395 0 395 0 0 144 0 145 -32 3
-31 3 -5 13 -4 12 46 0 46 0 0 -175z m-40 0 l0 -125 -395 0 -395 0 0 -415 0
-415 -25 0 -25 0 2 478 3 477 393 3 392 2 0 60 0 60 25 0 25 0 0 -125z m200
-800 l0 -335 -80 0 -80 0 0 -160 0 -160 -485 0 -485 0 0 91 0 91 13 -4 12 -5
3 -71 3 -72 459 0 460 0 0 160 0 160 80 0 80 0 0 305 0 305 -35 0 -35 0 0 15
0 15 45 0 45 0 0 -335z m-45 0 l0 -285 -77 0 -78 0 0 -160 0 -160 -440 0 -440
0 0 65 0 65 415 0 414 0 3 158 3 157 78 3 77 3 0 219 0 220 23 0 22 0 0 -285z
m-1215 -230 l0 -75 30 0 30 0 0 -16 0 -15 -42 3 -43 3 -3 74 -3 74 5 14 5 13
11 0 10 0 0 -75z m60 10 l0 -65 -20 0 -20 0 0 65 0 65 20 0 20 0 0 -65z"/>
<path d="M5400 1430 l0 -640 20 0 19 0 3 -97 3 -98 53 -3 52 -3 0 -60 0 -59
25 0 25 0 0 -100 0 -100 508 2 507 3 3 157 3 158 74 0 75 0 0 675 0 675 -55 0
-55 0 0 65 0 66 -157 -3 -158 -3 -3 -637 -2 -638 -255 0 -255 0 0 575 0 575
-60 0 -60 0 0 65 0 65 -155 0 -155 0 0 -640z m410 -75 l0 -565 -15 0 -15 0 0
549 0 550 -32 3 -31 3 -5 13 -4 12 51 0 51 0 0 -565z m940 -90 l0 -655 -80 0
-80 0 0 -160 0 -160 -485 0 -485 0 0 91 0 91 13 -4 12 -5 3 -71 3 -72 459 0
460 0 0 160 0 160 80 0 80 0 0 625 0 625 -35 0 -35 0 0 15 0 15 45 0 45 0 0
-655z m-990 65 l0 -540 -25 0 -25 0 0 540 0 540 25 0 25 0 0 -540z m945 -65
l0 -605 -77 0 -78 0 0 -160 0 -160 -440 0 -440 0 0 65 0 65 415 0 414 0 3 158
3 157 78 3 77 3 0 539 0 540 23 0 22 0 0 -605z m-1215 -550 l0 -75 30 0 30 0
0 -16 0 -15 -42 3 -43 3 -3 74 -3 74 5 14 5 13 11 0 10 0 0 -75z m60 10 l0
-65 -20 0 -20 0 0 65 0 65 20 0 20 0 0 -65z"/>
<path d="M6820 1590 l0 -480 20 0 19 0 3 -97 3 -98 373 -3 372 -2 0 -60 0 -60
-395 0 -395 0 0 -160 0 -160 20 0 19 0 3 -97 3 -98 585 0 585 0 3 513 2 512
-54 0 -55 0 -3 63 -3 62 -337 3 -338 2 0 60 0 60 393 2 392 3 3 193 2 192 -54
0 -55 0 -3 63 -3 62 -552 3 -553 2 0 -480z m1198 158 l-3 -173 -392 -3 -393
-2 0 -70 0 -70 -15 0 -15 0 0 85 0 85 395 0 395 0 0 145 0 145 -30 0 -30 0 0
15 0 15 45 0 45 0 -2 -172z m-48 -3 l0 -125 -395 0 -395 0 0 -95 0 -95 -20 0
-20 0 0 160 0 160 395 0 395 0 0 60 0 60 20 0 20 0 0 -125z m48 -957 l-3 -493
-562 -3 -563 -2 0 90 0 90 10 0 10 0 0 -75 0 -75 540 0 540 0 0 465 0 465 -30
0 -30 0 0 15 0 15 45 0 45 0 -2 -492z m-48 -3 l0 -445 -520 0 -521 0 3 62 3
63 498 3 497 2 0 380 0 380 20 0 20 0 0 -445z m-1060 250 l0 -75 351 0 351 0
-4 -12 -5 -13 -356 -3 -357 -2 0 90 0 90 10 0 10 0 0 -75z m698 8 l3 -63 -341
0 -340 0 0 58 0 59 7 6 7 7 330 -2 331 -3 3 -62z"/>
<path d="M8240 1910 l0 -160 -80 0 -80 0 0 -479 0 -480 23 -3 22 -3 3 -97 3
-98 54 0 55 0 0 -60 0 -60 20 0 19 0 3 -97 3 -98 508 -3 507 -2 0 159 0 160
78 3 77 3 3 513 2 512 -54 0 -55 0 -3 63 -3 62 -22 3 -23 3 0 95 0 94 -55 0
-55 0 0 65 0 65 -475 0 -475 0 0 -160z m1040 -75 l0 -85 -15 0 -15 0 0 70 0
70 -30 0 -30 0 0 15 0 15 45 0 45 0 0 -85z m-50 -25 l0 -60 -20 0 -20 0 0 60
0 60 20 0 20 0 0 -60z m-200 -125 l0 -65 -295 0 -295 0 0 -415 0 -415 -20 0
-20 0 0 480 0 480 315 0 315 0 0 -65z m0 -100 l0 -15 -270 0 -270 0 0 -390 0
-390 -15 0 -15 0 0 405 0 405 285 0 285 0 0 -15z m408 -477 l-3 -493 -77 -3
-78 -3 0 -159 0 -160 -485 0 -485 0 0 90 0 90 10 0 10 0 0 -75 0 -75 460 0
460 0 0 160 0 160 80 0 80 0 0 465 0 465 -30 0 -30 0 0 15 0 15 45 0 45 0 -2
-492z m-408 62 l0 -380 -260 0 -260 0 0 380 0 380 260 0 260 0 0 -380z m360
-65 l0 -445 -80 0 -80 0 0 -160 0 -160 -440 0 -441 0 3 62 3 63 418 3 417 2 0
160 0 160 80 0 80 0 0 380 0 380 20 0 20 0 0 -445z m-1220 -390 l0 -75 35 0
35 0 0 -15 0 -15 -45 0 -45 0 0 90 0 90 10 0 10 0 0 -75z m70 10 l0 -65 -20 0
-20 0 0 65 0 65 20 0 20 0 0 -65z"/>
<path d="M9500 1271 l0 -800 23 -3 22 -3 3 -97 3 -98 189 0 190 0 0 480 0 480
25 0 25 0 0 -60 0 -60 20 0 19 0 3 -97 3 -98 53 -3 52 -3 0 -60 0 -59 25 0 25
0 0 -100 0 -100 55 0 55 0 0 -59 0 -60 23 -3 22 -3 3 -98 3 -97 347 2 347 3 3
833 2 832 -60 0 -60 0 0 65 0 65 -155 0 -155 0 0 -640 0 -640 -25 0 -25 0 0
95 0 95 -55 0 -55 0 0 65 0 65 -20 0 -20 0 0 95 0 95 -60 0 -60 0 0 65 0 65
-20 0 -20 0 0 95 0 95 -55 0 -54 0 -3 63 -3 62 -22 3 -23 3 0 95 0 94 -55 0
-55 0 0 65 0 65 -240 0 -240 0 0 -799z m570 564 l0 -85 -15 0 -15 0 0 70 0 70
-30 0 -30 0 0 15 0 15 45 0 45 0 0 -85z m948 -727 l-3 -813 -327 -3 -328 -2 0
90 0 90 10 0 10 0 0 -75 0 -75 305 0 305 0 0 784 0 785 -32 3 -31 3 -5 13 -4
12 51 0 51 0 -2 -812z m-998 702 l0 -60 -20 0 -20 0 0 60 0 60 20 0 20 0 0
-60z m950 -705 l0 -765 -280 0 -280 0 0 65 0 65 255 0 255 0 0 700 0 700 25 0
25 0 0 -765z m-740 410 l0 -85 -15 0 -15 0 0 70 0 70 -30 0 -30 0 0 15 0 15
45 0 45 0 0 -85z m-50 -25 l0 -60 -20 0 -20 0 0 60 0 60 20 0 20 0 0 -60z
m-202 -127 l3 -63 -62 0 -61 0 3 -480 4 -480 -122 0 -123 0 0 65 0 65 100 0
100 0 0 480 0 481 78 -3 77 -3 3 -62z m0 -95 l-5 -13 -31 -3 -32 -3 0 -480 0
-479 -170 0 -170 0 0 90 0 90 10 0 10 0 0 -75 0 -75 150 0 150 0 0 480 0 480
46 0 46 0 -4 -12z m402 -73 l0 -85 -10 0 -10 0 0 69 0 70 -32 3 -31 3 -5 13
-4 12 46 0 46 0 0 -85z m-40 -25 l0 -60 -25 0 -25 0 0 60 0 60 25 0 25 0 0
-60z m-270 -135 l0 -75 30 0 30 0 0 -16 0 -15 -42 3 -43 3 -3 74 -3 74 5 14 5
13 11 0 10 0 0 -75z m60 10 l0 -65 -20 0 -20 0 0 65 0 65 20 0 20 0 0 -65z
m410 -170 l0 -85 -10 0 -10 0 0 70 0 70 -35 0 -35 0 0 15 0 15 45 0 45 0 0
-85z m-40 -25 l0 -60 -25 0 -25 0 0 60 0 60 25 0 25 0 0 -60z m-272 -138 l3
-72 29 0 30 0 0 -15 0 -15 -45 0 -45 0 0 91 0 91 13 -4 12 -5 3 -71z m62 13
l0 -65 -20 0 -20 0 0 65 0 65 20 0 20 0 0 -65z"/>
  </g>
  <!-- dark detail / outlines -->
  <g transform="translate(0,417) scale(0.1,-0.1)" fill="#000000" stroke="none">
<path d="M342 3993 l158 -4 3 -162 3 -162 2 163 2 162 310 0 309 0 4 -62 4
-63 -1 65 -1 65 -475 0 -475 1 157 -3z"/>
<path d="M1528 3993 l82 -4 83 4 82 3 -165 0 -165 0 83 -3z"/>
<path d="M2472 3993 l78 -4 3 -317 2 -317 3 318 2 317 75 0 74 0 4 -57 3 -58
0 60 -1 60 -160 1 -160 0 77 -3z"/>
<path d="M3108 3993 l243 -3 237 3 237 2 -480 0 -480 0 243 -2z"/>
<path d="M4528 3993 l243 -3 237 3 237 2 -480 0 -480 0 243 -2z"/>
<path d="M5555 3988 l-5 -13 2 -630 3 -630 3 638 2 637 75 0 75 0 3 -637 2
-638 3 637 2 637 158 4 157 3 -238 2 -238 2 -4 -12z"/>
<path d="M6738 3993 l82 -4 83 4 82 3 -165 0 -165 0 83 -3z"/>
<path d="M1244 3773 l1 -98 23 -1 22 -2 -19 5 -20 4 -4 95 -3 94 0 -97z"/>
<path d="M2822 3683 l-2 -192 -77 -4 -78 -3 78 -2 78 -2 5 13 4 13 -3 184 -2
185 -3 -192z"/>
<path d="M1131 3834 l1 -19 5 13 5 13 -6 6 -6 6 1 -19z"/>
<path d="M2711 3834 l1 -19 5 13 5 13 -6 6 -6 6 1 -19z"/>
<path d="M3912 3768 l-2 -88 -10 0 -9 0 -4 73 -3 72 -2 -77 -2 -78 15 0 16 0
5 13 5 14 -4 79 -3 79 -2 -87z"/>
<path d="M5332 3768 l-2 -88 -10 0 -9 0 -4 73 -3 72 -2 -77 -2 -78 15 0 16 0
5 13 5 14 -4 79 -3 79 -2 -87z"/>
<path d="M6122 3768 l-2 -88 -10 0 -9 0 -4 73 -3 72 -2 -77 -2 -78 15 0 16 0
5 13 5 14 -4 79 -3 79 -2 -87z"/>
<path d="M1130 3740 l0 -70 28 1 27 2 -22 4 -23 4 0 59 0 59 23 4 22 4 -27 2
-28 1 0 -70z"/>
<path d="M1788 3803 l22 -4 0 -59 0 -59 -22 -4 -23 -4 25 1 25 1 0 65 0 65
-25 2 -25 1 23 -5z"/>
<path d="M2712 3743 l2 -68 3 62 4 62 22 4 22 4 -27 2 -28 1 2 -67z"/>
<path d="M3833 3803 l17 -5 13 5 12 5 -30 0 -30 0 18 -5z"/>
<path d="M5253 3803 l17 -5 13 5 12 5 -30 0 -30 0 18 -5z"/>
<path d="M6043 3803 l17 -5 13 5 12 5 -30 0 -30 0 18 -5z"/>
<path d="M6998 3803 l22 -4 0 -542 1 -542 1 -230 2 -230 6 230 5 230 -5 545
-5 545 -25 2 -25 1 23 -5z"/>
<path d="M340 3675 l0 -5 5 0 5 0 0 5 0 5 -5 0 -5 0 0 -5z"/>
<path d="M970 3675 l0 -5 5 0 5 0 0 5 0 5 -5 0 -5 0 0 -5z"/>
<path d="M1208 3673 l13 -5 6 6 6 6 -19 -1 -19 -1 13 -5z"/>
<path d="M1490 3675 l0 -5 5 0 5 0 0 5 0 5 -5 0 -5 0 0 -5z"/>
<path d="M1510 3675 l0 -5 5 0 5 0 0 5 0 5 -5 0 -5 0 0 -5z"/>
<path d="M1543 3605 l0 -80 4 43 4 43 -4 37 -4 37 0 -80z"/>
<path d="M1563 3615 l0 -70 4 38 4 37 -4 33 -4 32 0 -70z"/>
<path d="M1838 3673 l13 -5 6 6 6 6 -19 -1 -19 -1 13 -5z"/>
<path d="M1897 3674 l22 -5 4 -60 4 -59 -1 62 -1 63 -25 2 -25 1 22 -4z"/>
<path d="M2278 3673 l42 -4 43 4 42 4 -85 0 -85 0 43 -4z"/>
<path d="M2870 3675 l0 -5 5 0 5 0 0 5 0 5 -5 0 -5 0 0 -5z"/>
<path d="M3180 3675 l0 -5 5 0 5 0 0 5 0 5 -5 0 -5 0 0 -5z"/>
<path d="M3660 3675 l0 -5 5 0 5 0 0 5 0 5 -5 0 -5 0 0 -5z"/>
<path d="M3833 3673 l17 -5 13 5 12 5 -30 0 -30 0 18 -5z"/>
<path d="M3943 3673 l17 -5 13 5 12 5 -30 0 -30 0 18 -5z"/>
<path d="M4135 3668 l-5 -13 2 -470 3 -470 3 477 2 477 83 4 82 3 -83 2 -83 2
-4 -12z"/>
<path d="M5080 3675 l0 -5 5 0 5 0 0 5 0 5 -5 0 -5 0 0 -5z"/>
<path d="M5253 3673 l17 -5 13 5 12 5 -30 0 -30 0 18 -5z"/>
<path d="M5363 3673 l17 -5 13 5 12 5 -30 0 -30 0 18 -5z"/>
<path d="M5870 3675 l0 -5 5 0 5 0 0 5 0 5 -5 0 -5 0 0 -5z"/>
<path d="M6043 3673 l17 -5 13 5 12 5 -30 0 -30 0 18 -5z"/>
<path d="M6153 3673 l17 -5 13 5 12 5 -30 0 -30 0 18 -5z"/>
<path d="M6810 3675 l0 -5 5 0 5 0 0 5 0 5 -5 0 -5 0 0 -5z"/>
<path d="M6970 3675 l0 -5 5 0 5 0 0 5 0 5 -5 0 -5 0 0 -5z"/>
<path d="M1402 3363 l-2 -192 -77 -3 -78 -3 0 -65 0 -65 23 -1 22 -2 -20 5
-20 4 0 60 0 59 75 0 76 0 5 13 4 13 -3 184 -2 185 -3 -192z"/>
<path d="M2034 3453 l1 -98 100 -1 100 0 -97 3 -97 4 -4 94 -3 95 0 -97z"/>
<path d="M2604 3390 l0 -165 3 83 4 82 -4 83 -3 82 0 -165z"/>
<path d="M3232 3458 l-2 -97 -27 -4 -28 -4 28 -2 28 -1 5 13 5 14 -4 89 -3 89
-2 -97z"/>
<path d="M4495 3135 l0 -420 2 213 3 213 -3 207 -2 207 0 -420z"/>
<path d="M1384 3355 l0 -180 3 93 4 93 -4 87 -3 87 0 -180z"/>
<path d="M1921 3514 l1 -19 5 13 5 13 -6 6 -6 6 1 -19z"/>
<path d="M4510 3125 l-5 -410 -110 -6 -110 -5 480 0 480 1 -345 5 -345 5 -5
325 -6 325 1 -328 0 -327 -15 0 -15 0 3 262 3 263 -3 150 -3 150 -5 -410z"/>
<path d="M970 3505 l0 -5 5 0 5 0 0 5 0 5 -5 0 -5 0 0 -5z"/>
<path d="M1290 3505 l0 -5 5 0 5 0 0 5 0 5 -5 0 -5 0 0 -5z"/>
<path d="M2800 3505 l0 -5 5 0 5 0 0 5 0 5 -5 0 -5 0 0 -5z"/>
<path d="M614 3476 l-5 -13 3 -54 3 -54 185 0 185 -1 -182 3 -183 3 0 60 0 60
183 3 182 2 -183 3 -183 2 -5 -14z"/>
<path d="M1303 3483 l17 -5 13 5 12 5 -30 0 -30 0 18 -5z"/>
<path d="M1528 3483 l32 -4 28 4 27 4 -60 0 -60 0 33 -4z"/>
<path d="M1920 3420 l0 -70 28 1 27 2 -22 4 -23 4 0 59 0 59 23 4 22 4 -27 2
-28 1 0 -70z"/>
<path d="M3388 3483 l92 -4 93 4 92 3 -185 0 -185 0 93 -3z"/>
<path d="M3997 3483 l22 -4 4 -122 3 -122 -1 125 0 125 -25 2 -25 1 22 -5z"/>
<path d="M4688 3483 l132 -4 133 4 132 3 -265 0 -265 0 133 -3z"/>
<path d="M5418 3483 l22 -4 1 -382 1 -382 0 -70 1 -70 6 70 6 70 -5 385 -5
385 -25 2 -25 1 23 -5z"/>
<path d="M6208 3483 l22 -4 0 -59 0 -59 -22 -4 -23 -4 25 1 25 1 0 65 0 65
-25 2 -25 1 23 -5z"/>
<path d="M340 3355 l0 -5 5 0 5 0 0 5 0 5 -5 0 -5 0 0 -5z"/>
<path d="M502 3193 l2 -168 3 162 3 162 23 4 22 4 -27 2 -28 1 2 -167z"/>
<path d="M578 3353 l13 -5 6 6 6 6 -19 -1 -19 -1 13 -5z"/>
<path d="M1132 3198 l-2 -168 28 1 27 2 -22 4 -23 4 -3 162 -3 162 -2 -167z"/>
<path d="M1654 3263 l1 -98 58 -1 57 -1 -55 4 -54 4 -4 95 -3 94 0 -97z"/>
<path d="M1674 3270 l0 -95 3 48 4 47 -4 48 -3 47 0 -95z"/>
<path d="M1700 3355 l0 -5 5 0 5 0 0 5 0 5 -5 0 -5 0 0 -5z"/>
<path d="M1720 3355 l0 -5 5 0 5 0 0 5 0 5 -5 0 -5 0 0 -5z"/>
<path d="M1760 3355 l0 -5 5 0 5 0 0 5 0 5 -5 0 -5 0 0 -5z"/>
<path d="M1998 3353 l13 -5 6 6 6 6 -19 -1 -19 -1 13 -5z"/>
<path d="M2390 3355 l0 -5 5 0 5 0 0 5 0 5 -5 0 -5 0 0 -5z"/>
<path d="M2870 3355 l0 -5 5 0 5 0 0 5 0 5 -5 0 -5 0 0 -5z"/>
<path d="M3258 3353 l13 -5 6 6 6 6 -19 -1 -19 -1 13 -5z"/>
<path d="M3393 3353 l98 -4 92 4 92 3 -190 0 -190 0 98 -3z"/>
<path d="M4290 3355 l0 -5 5 0 5 0 0 5 0 5 -5 0 -5 0 0 -5z"/>
<path d="M5080 3355 l0 -5 5 0 5 0 0 5 0 5 -5 0 -5 0 0 -5z"/>
<path d="M5390 3355 l0 -5 5 0 5 0 0 5 0 5 -5 0 -5 0 0 -5z"/>
<path d="M5870 3355 l0 -5 5 0 5 0 0 5 0 5 -5 0 -5 0 0 -5z"/>
<path d="M6258 3353 l13 -5 6 6 6 6 -19 -1 -19 -1 13 -5z"/>
<path d="M6317 3354 l22 -5 4 -60 4 -59 -1 62 -1 63 -25 2 -25 1 22 -4z"/>
<path d="M6810 3355 l0 -5 5 0 5 0 0 5 0 5 -5 0 -5 0 0 -5z"/>
<path d="M6970 3355 l0 -5 5 0 5 0 0 5 0 5 -5 0 -5 0 0 -5z"/>
<path d="M2444 3070 l0 -165 3 83 4 82 -4 83 -3 82 0 -165z"/>
<path d="M3860 3136 l0 -95 -22 -4 -23 -4 28 -2 27 -1 0 100 0 100 -5 0 -5 0
0 -94z"/>
<path d="M6454 3133 l1 -98 23 -1 22 -2 -19 5 -20 4 -4 95 -3 94 0 -97z"/>
<path d="M3882 3123 l-2 -93 18 0 17 0 -12 8 -12 8 -4 84 -3 85 -2 -92z"/>
<path d="M6341 3194 l1 -19 5 13 5 13 -6 6 -6 6 1 -19z"/>
<path d="M1760 3185 l0 -5 5 0 5 0 0 5 0 5 -5 0 -5 0 0 -5z"/>
<path d="M5965 2952 l0 -232 10 0 10 0 3 219 2 220 23 4 22 4 -27 2 -28 1 -2
-227 -2 -228 -6 235 -6 235 1 -233z"/>
<path d="M2548 3163 l42 -4 43 4 42 4 -85 0 -85 0 43 -4z"/>
<path d="M3968 3163 l42 -4 43 4 42 4 -85 0 -85 0 43 -4z"/>
<path d="M6340 3100 l0 -70 28 1 27 2 -22 4 -23 4 0 59 0 59 23 4 22 4 -27 2
-28 1 0 -70z"/>
<path d="M340 3035 l0 -5 5 0 5 0 0 5 0 5 -5 0 -5 0 0 -5z"/>
<path d="M970 3035 l0 -5 5 0 5 0 0 5 0 5 -5 0 -5 0 0 -5z"/>
<path d="M1208 3033 l13 -5 6 6 6 6 -19 -1 -19 -1 13 -5z"/>
<path d="M1814 2943 l1 -98 52 -3 52 -3 4 -62 3 -62 2 68 2 67 -55 0 -54 0 -4
95 -3 95 0 -97z"/>
<path d="M1830 3035 l0 -5 5 0 5 0 0 5 0 5 -5 0 -5 0 0 -5z"/>
<path d="M1923 2975 l0 -70 4 38 4 37 -4 33 -4 32 0 -70z"/>
<path d="M2080 3035 l0 -5 5 0 5 0 0 5 0 5 -5 0 -5 0 0 -5z"/>
<path d="M2870 3035 l0 -5 5 0 5 0 0 5 0 5 -5 0 -5 0 0 -5z"/>
<path d="M3180 3035 l0 -5 5 0 5 0 0 5 0 5 -5 0 -5 0 0 -5z"/>
<path d="M3660 3035 l0 -5 5 0 5 0 0 5 0 5 -5 0 -5 0 0 -5z"/>
<path d="M3943 3033 l17 -5 13 5 12 5 -30 0 -30 0 18 -5z"/>
<path d="M4290 3035 l0 -5 5 0 5 0 0 5 0 5 -5 0 -5 0 0 -5z"/>
<path d="M5080 3035 l0 -5 5 0 5 0 0 5 0 5 -5 0 -5 0 0 -5z"/>
<path d="M5390 3035 l0 -5 5 0 5 0 0 5 0 5 -5 0 -5 0 0 -5z"/>
<path d="M6074 2943 l1 -98 58 -1 57 -1 -55 4 -54 4 -4 95 -3 94 0 -97z"/>
<path d="M6094 2950 l0 -95 3 48 4 47 -4 48 -3 47 0 -95z"/>
<path d="M6120 3035 l0 -5 5 0 5 0 0 5 0 5 -5 0 -5 0 0 -5z"/>
<path d="M6140 3035 l0 -5 5 0 5 0 0 5 0 5 -5 0 -5 0 0 -5z"/>
<path d="M6180 3035 l0 -5 5 0 5 0 0 5 0 5 -5 0 -5 0 0 -5z"/>
<path d="M6418 3033 l13 -5 6 6 6 6 -19 -1 -19 -1 13 -5z"/>
<path d="M6810 3035 l0 -5 5 0 5 0 0 5 0 5 -5 0 -5 0 0 -5z"/>
<path d="M6970 3035 l0 -5 5 0 5 0 0 5 0 5 -5 0 -5 0 0 -5z"/>
<path d="M1400 2815 l-4 -100 -6 90 -6 90 -2 -87 -2 -87 10 -6 10 -6 5 14 6
14 -4 89 -3 89 -4 -100z"/>
<path d="M2282 2820 l-2 -96 10 -10 10 -10 3 -234 2 -235 0 330 1 330 -5 -90
-5 -90 -6 100 -6 100 -2 -95z"/>
<path d="M3230 2585 l0 -328 5 5 5 5 0 318 1 318 -5 5 -5 5 -1 -328z"/>
<path d="M6614 2815 l0 -100 3 53 4 53 -4 47 -3 47 0 -100z"/>
<path d="M1921 2874 l1 -19 5 13 5 13 -6 6 -6 6 1 -19z"/>
<path d="M6594 2804 l1 -91 -120 -2 -120 -2 -8 -8 -8 -8 4 -59 3 -59 2 63 2
62 318 2 317 2 -190 6 -190 5 -6 90 -6 90 1 -91z"/>
<path d="M970 2865 l0 -5 5 0 5 0 0 5 0 5 -5 0 -5 0 0 -5z"/>
<path d="M1290 2865 l0 -5 5 0 5 0 0 5 0 5 -5 0 -5 0 0 -5z"/>
<path d="M1830 2865 l0 -5 5 0 5 0 0 5 0 5 -5 0 -5 0 0 -5z"/>
<path d="M6180 2865 l0 -5 5 0 5 0 0 5 0 5 -5 0 -5 0 0 -5z"/>
<path d="M6500 2865 l0 -5 5 0 5 0 0 5 0 5 -5 0 -5 0 0 -5z"/>
<path d="M615 2838 l-4 -13 -3 -55 -3 -55 -25 -1 -25 -1 -185 -4 -185 -3 157
-3 157 -4 4 -157 3 -157 2 158 2 157 310 0 309 0 4 -155 3 -155 -1 157 0 158
-260 3 -260 2 3 65 4 65 181 3 182 2 -183 3 -183 2 -4 -12z"/>
<path d="M1303 2843 l17 -5 13 5 12 5 -30 0 -30 0 18 -5z"/>
<path d="M2388 2843 l42 -4 43 4 42 4 -85 0 -85 0 43 -4z"/>
<path d="M3388 2843 l92 -4 93 4 92 3 -185 0 -185 0 93 -3z"/>
<path d="M3998 2843 l22 -4 0 -62 1 -62 1 -230 2 -230 6 228 5 227 -5 68 -5
67 -25 2 -25 1 23 -5z"/>
<path d="M6513 2843 l17 -5 13 5 12 5 -30 0 -30 0 18 -5z"/>
<path d="M1345 2710 l6 -10 5 0 4 0 0 10 0 10 -11 0 -10 0 6 -10z"/>
<path d="M2332 2468 l2 -253 3 85 3 85 2 168 3 167 -7 0 -8 0 2 -252z"/>
<path d="M3280 2710 l0 -10 10 0 10 0 0 10 0 10 -10 0 -10 0 0 -10z"/>
<path d="M4070 2710 l0 -10 10 0 10 0 0 10 0 10 -10 0 -10 0 0 -10z"/>
<path d="M5490 2710 l0 -10 10 0 10 0 0 10 0 10 -10 0 -10 0 0 -10z"/>
<path d="M5925 2710 l6 -10 5 0 4 0 0 10 0 10 -11 0 -10 0 6 -10z"/>
<path d="M7070 2710 l0 -10 10 0 10 0 0 10 0 10 -10 0 -10 0 0 -10z"/>
<path d="M1924 2697 l-5 -13 4 -149 3 -150 2 157 2 157 158 4 157 3 -158 2
-158 2 -5 -13z"/>
<path d="M2948 2703 l82 -4 83 4 82 3 -165 0 -165 0 83 -3z"/>
<path d="M3738 2703 l82 -4 83 4 82 3 -165 0 -165 0 83 -3z"/>
<path d="M4180 2705 l0 -5 5 0 5 0 0 5 0 5 -5 0 -5 0 0 -5z"/>
<path d="M4243 2645 l0 -70 4 38 4 37 -4 33 -4 32 0 -70z"/>
<path d="M5554 2697 l-5 -13 4 -149 3 -150 2 158 2 157 75 0 74 0 4 -157 3
-158 2 157 2 157 78 4 77 3 -158 2 -158 2 -5 -13z"/>
<path d="M6234 2613 l1 -98 52 -3 52 -3 4 -62 3 -62 2 68 2 67 -55 0 -54 0 -4
95 -3 95 0 -97z"/>
<path d="M6290 2705 l0 -5 5 0 5 0 0 5 0 5 -5 0 -5 0 0 -5z"/>
<path d="M1384 2615 l-1 -90 4 42 4 42 -4 48 -3 48 0 -90z"/>
<path d="M1402 2613 l-2 -92 -77 -3 -78 -3 -3 -157 -3 -158 -499 0 -499 0 -4
95 -3 95 0 -97 1 -98 505 0 505 0 3 158 3 157 75 0 75 0 5 13 5 14 -4 84 -3
84 -2 -92z"/>
<path d="M2284 2540 l0 -165 3 83 4 82 -4 83 -3 82 0 -165z"/>
<path d="M5964 2455 l0 -250 3 122 4 122 -4 128 -3 128 0 -250z"/>
<path d="M5982 2453 l-2 -253 -192 -3 -193 -2 193 -3 193 -2 4 13 5 12 -3 245
-2 245 -3 -252z"/>
<path d="M5284 2480 l0 -105 3 53 4 52 -4 53 -3 52 0 -105z"/>
<path d="M5304 2400 l0 -165 3 83 4 82 -4 83 -3 82 0 -165z"/>
<path d="M6341 2544 l1 -19 5 13 5 13 -6 6 -6 6 1 -19z"/>
<path d="M6250 2535 l0 -5 5 0 5 0 0 5 0 5 -5 0 -5 0 0 -5z"/>
<path d="M4208 2513 l32 -4 28 4 27 4 -60 0 -60 0 33 -4z"/>
<path d="M5388 2513 l42 -4 43 4 42 4 -85 0 -85 0 43 -4z"/>
<path d="M250 2385 l0 -5 5 0 5 0 0 5 0 5 -5 0 -5 0 0 -5z"/>
<path d="M2010 2385 l0 -5 5 0 5 0 0 5 0 5 -5 0 -5 0 0 -5z"/>
<path d="M2033 2325 l0 -70 4 38 4 37 -4 33 -4 32 0 -70z"/>
<path d="M2910 2385 l0 -5 5 0 5 0 0 5 0 5 -5 0 -5 0 0 -5z"/>
<path d="M2930 2385 l0 -5 5 0 5 0 0 5 0 5 -5 0 -5 0 0 -5z"/>
<path d="M2963 2315 l0 -80 4 43 4 43 -4 37 -4 37 0 -80z"/>
<path d="M2983 2325 l0 -70 4 38 4 37 -4 33 -4 32 0 -70z"/>
<path d="M3700 2385 l0 -5 5 0 5 0 0 5 0 5 -5 0 -5 0 0 -5z"/>
<path d="M3720 2385 l0 -5 5 0 5 0 0 5 0 5 -5 0 -5 0 0 -5z"/>
<path d="M3753 2315 l0 -80 4 43 4 43 -4 37 -4 37 0 -80z"/>
<path d="M3773 2325 l0 -70 4 38 4 37 -4 33 -4 32 0 -70z"/>
<path d="M4330 2385 l0 -5 5 0 5 0 0 5 0 5 -5 0 -5 0 0 -5z"/>
<path d="M4350 2385 l0 -5 5 0 5 0 0 5 0 5 -5 0 -5 0 0 -5z"/>
<path d="M4383 2315 l0 -80 4 43 4 43 -4 37 -4 37 0 -80z"/>
<path d="M4403 2325 l0 -70 4 38 4 37 -4 33 -4 32 0 -70z"/>
<path d="M5334 2305 l-1 -90 4 42 4 42 -4 48 -3 48 0 -90z"/>
<path d="M5640 2385 l0 -5 5 0 5 0 0 5 0 5 -5 0 -5 0 0 -5z"/>
<path d="M5663 2325 l0 -70 4 38 4 37 -4 33 -4 32 0 -70z"/>
<path d="M6430 2385 l0 -5 5 0 5 0 0 5 0 5 -5 0 -5 0 0 -5z"/>
<path d="M6453 2325 l0 -70 4 38 4 37 -4 33 -4 32 0 -70z"/>
<path d="M250 2215 l0 -5 5 0 5 0 0 5 0 5 -5 0 -5 0 0 -5z"/>
<path d="M1220 2215 l0 -5 5 0 5 0 0 5 0 5 -5 0 -5 0 0 -5z"/>
<path d="M2063 2193 l97 -4 98 4 97 3 -195 0 -195 0 98 -3z"/>
<path d="M3013 2193 l97 -4 98 4 97 3 -195 0 -195 0 98 -3z"/>
<path d="M3803 2193 l97 -4 98 4 97 3 -195 0 -195 0 98 -3z"/>
<path d="M4593 2193 l258 -3 252 3 252 2 -510 0 -510 0 258 -2z"/>
<path d="M6563 2193 l177 -3 178 3 177 2 -355 0 -355 0 178 -2z"/>
<path d="M342 2063 l158 -4 3 -162 3 -162 2 162 2 163 393 3 392 2 -555 0
-555 1 157 -3z"/>
<path d="M2000 2063 l549 -3 4 -60 4 -60 -1 62 -1 63 -553 0 -552 0 550 -2z"/>
<path d="M2715 2058 l-5 -13 2 -790 3 -790 3 797 2 798 473 3 472 2 -473 3
-473 2 -4 -12z"/>
<path d="M4137 2063 l-7 -6 0 -153 0 -153 -77 -4 -78 -3 83 -2 82 -2 0 160 0
160 473 3 472 2 -471 3 -471 2 -6 -7z"/>
<path d="M5478 2063 l83 -4 77 4 77 3 -160 0 -160 0 83 -3z"/>
<path d="M6347 2063 l-7 -6 0 -634 0 -633 -255 0 -255 0 -3 575 -2 575 0 -577
0 -578 263 -3 262 -2 0 640 0 639 158 4 157 3 -156 2 -156 2 -6 -7z"/>
<path d="M7287 2063 l472 -3 4 -158 3 -157 2 158 2 157 75 0 74 0 4 -60 4 -60
-1 62 -1 63 -555 0 -555 0 472 -2z"/>
<path d="M8478 2063 l243 -3 237 3 237 2 -480 0 -480 0 243 -2z"/>
<path d="M9618 2063 l122 -4 123 4 122 3 -245 0 -245 0 123 -3z"/>
<path d="M10688 2063 l83 -4 77 4 77 3 -160 0 -160 0 83 -3z"/>
<path d="M1402 1753 l-2 -193 -392 -2 -393 -3 0 -65 0 -65 185 0 185 -1 -182
3 -183 3 0 60 0 60 390 0 391 0 5 13 4 13 -3 184 -2 185 -3 -192z"/>
<path d="M3772 1843 l-2 -103 28 1 27 2 -22 4 -22 4 -4 97 -3 97 -2 -102z"/>
<path d="M5192 1753 l-2 -193 -395 0 -395 0 0 -390 0 -390 265 0 265 0 -2 168
-2 167 -3 -162 -3 -163 -255 0 -255 0 0 380 0 380 390 0 391 0 5 13 4 13 -3
184 -2 185 -3 -192z"/>
<path d="M8032 1753 l-2 -193 -392 -2 -393 -3 0 -65 0 -65 257 -3 258 -2 3
-478 2 -477 3 478 2 477 75 0 74 0 4 -62 4 -63 -1 65 -1 65 -337 3 -338 2 0
60 0 60 390 0 391 0 5 13 4 13 -3 184 -2 185 -3 -192z"/>
<path d="M11032 1113 l-2 -833 -347 -3 -348 -2 348 -3 348 -2 4 12 5 13 -2
825 -3 825 -3 -832z"/>
<path d="M1384 1745 l0 -180 3 93 4 93 -4 87 -3 87 0 -180z"/>
<path d="M2551 1904 l1 -19 5 13 5 13 -6 6 -6 6 1 -19z"/>
<path d="M3750 1836 l0 -84 -12 -5 -13 -5 18 -1 17 -1 0 90 0 90 -5 0 -5 0 0
-84z"/>
<path d="M5174 1745 l0 -180 3 93 4 93 -4 87 -3 87 0 -180z"/>
<path d="M6755 1270 l0 -655 2 328 3 327 -3 328 -2 327 0 -655z"/>
<path d="M7921 1904 l1 -19 5 13 5 13 -6 6 -6 6 1 -19z"/>
<path d="M1290 1895 l0 -5 5 0 5 0 0 5 0 5 -5 0 -5 0 0 -5z"/>
<path d="M5080 1895 l0 -5 5 0 5 0 0 5 0 5 -5 0 -5 0 0 -5z"/>
<path d="M5710 1895 l0 -5 5 0 5 0 0 5 0 5 -5 0 -5 0 0 -5z"/>
<path d="M10920 1895 l0 -5 5 0 5 0 0 5 0 5 -5 0 -5 0 0 -5z"/>
<path d="M6725 1265 l0 -630 2 318 3 318 -3 312 -2 312 0 -630z"/>
<path d="M1303 1873 l17 -5 13 5 12 5 -30 0 -30 0 18 -5z"/>
<path d="M2552 1813 l2 -68 3 63 4 62 19 0 19 0 4 -127 3 -128 -1 130 0 130
-27 3 -28 3 2 -68z"/>
<path d="M3673 1873 l17 -5 13 5 12 5 -30 0 -30 0 18 -5z"/>
<path d="M5093 1873 l17 -5 13 5 12 5 -30 0 -30 0 18 -5z"/>
<path d="M5723 1873 l17 -5 13 5 12 5 -30 0 -30 0 18 -5z"/>
<path d="M6673 1873 l17 -5 13 5 12 5 -30 0 -30 0 18 -5z"/>
<path d="M7922 1813 l2 -68 3 62 4 62 22 4 22 4 -27 2 -28 1 2 -67z"/>
<path d="M9208 1873 l22 -4 0 -59 0 -59 -22 -4 -23 -4 25 1 25 1 0 65 0 65
-25 2 -25 1 23 -5z"/>
<path d="M9998 1873 l22 -4 0 -59 0 -59 -22 -4 -23 -4 25 1 25 1 0 65 0 65
-25 2 -25 1 23 -5z"/>
<path d="M10933 1873 l17 -5 13 5 12 5 -30 0 -30 0 18 -5z"/>
<path d="M340 1745 l0 -5 5 0 5 0 0 5 0 5 -5 0 -5 0 0 -5z"/>
<path d="M1450 1745 l0 -5 5 0 5 0 0 5 0 5 -5 0 -5 0 0 -5z"/>
<path d="M1760 1745 l0 -5 5 0 5 0 0 5 0 5 -5 0 -5 0 0 -5z"/>
<path d="M2870 1745 l0 -5 5 0 5 0 0 5 0 5 -5 0 -5 0 0 -5z"/>
<path d="M3500 1745 l0 -5 5 0 5 0 0 5 0 5 -5 0 -5 0 0 -5z"/>
<path d="M3673 1743 l17 -5 13 5 12 5 -30 0 -30 0 18 -5z"/>
<path d="M4290 1745 l0 -5 5 0 5 0 0 5 0 5 -5 0 -5 0 0 -5z"/>
<path d="M5550 1745 l0 -5 5 0 5 0 0 5 0 5 -5 0 -5 0 0 -5z"/>
<path d="M6500 1745 l0 -5 5 0 5 0 0 5 0 5 -5 0 -5 0 0 -5z"/>
<path d="M6705 1265 l0 -490 2 248 3 248 -3 242 -2 242 0 -490z"/>
<path d="M6970 1745 l0 -5 5 0 5 0 0 5 0 5 -5 0 -5 0 0 -5z"/>
<path d="M7132 1588 l-2 -168 28 1 27 2 -22 4 -23 4 -3 162 -3 162 -2 -167z"/>
<path d="M8118 1743 l42 -4 43 4 42 4 -85 0 -85 0 43 -4z"/>
<path d="M8390 1745 l0 -5 5 0 5 0 0 5 0 5 -5 0 -5 0 0 -5z"/>
<path d="M9258 1743 l13 -5 6 6 6 6 -19 -1 -19 -1 13 -5z"/>
<path d="M9317 1744 l22 -5 4 -60 4 -59 -1 62 -1 63 -25 2 -25 1 22 -4z"/>
<path d="M9500 1745 l0 -5 5 0 5 0 0 5 0 5 -5 0 -5 0 0 -5z"/>
<path d="M9810 1745 l0 -5 5 0 5 0 0 5 0 5 -5 0 -5 0 0 -5z"/>
<path d="M10048 1743 l13 -5 6 6 6 6 -19 -1 -19 -1 13 -5z"/>
<path d="M10107 1744 l22 -5 4 -60 4 -59 -1 62 -1 63 -25 2 -25 1 22 -4z"/>
<path d="M10760 1745 l0 -5 5 0 5 0 0 5 0 5 -5 0 -5 0 0 -5z"/>
<path d="M1812 1528 l-2 -97 -27 -4 -28 -4 28 -2 28 -1 5 13 5 14 -4 89 -3 89
-2 -97z"/>
<path d="M3070 1526 l0 -95 -22 -4 -23 -4 28 -2 27 -1 0 100 0 100 -5 0 -5 0
0 -94z"/>
<path d="M8442 1208 l-2 -417 -27 -4 -28 -4 28 -2 28 -1 4 13 5 12 -3 410 -2
410 -3 -417z"/>
<path d="M9452 1113 l-2 -512 -77 -4 -78 -3 78 -2 78 -2 4 13 5 12 -2 505 -3
505 -3 -512z"/>
<path d="M10244 1523 l1 -98 23 -1 22 -2 -19 5 -20 4 -4 95 -3 94 0 -97z"/>
<path d="M3092 1513 l-2 -93 18 0 17 0 -12 8 -12 8 -4 84 -3 85 -2 -92z"/>
<path d="M3914 1430 l0 -175 3 88 4 87 -4 88 -3 87 0 -175z"/>
<path d="M9341 1584 l1 -19 5 13 5 13 -6 6 -6 6 1 -19z"/>
<path d="M10131 1584 l1 -19 5 13 5 13 -6 6 -6 6 1 -19z"/>
<path d="M8010 1575 l0 -5 5 0 5 0 0 5 0 5 -5 0 -5 0 0 -5z"/>
<path d="M3884 1425 l0 -150 3 78 4 78 -4 72 -3 72 0 -150z"/>
<path d="M4380 1181 l0 -389 -12 -5 -13 -5 18 -1 17 -1 0 395 0 395 -5 0 -5 0
0 -389z"/>
<path d="M2072 1553 l197 -3 203 3 203 2 -400 0 -400 0 197 -2z"/>
<path d="M3228 1553 l92 -4 93 4 92 3 -185 0 -185 0 93 -3z"/>
<path d="M3833 1553 l17 -5 13 5 12 5 -30 0 -30 0 18 -5z"/>
<path d="M8638 1553 l132 -4 133 4 132 3 -265 0 -265 0 133 -3z"/>
<path d="M9342 1173 l3 -388 2 382 3 382 23 4 22 4 -27 2 -28 1 2 -387z"/>
<path d="M10130 1490 l0 -70 28 1 27 2 -22 4 -23 4 0 59 0 59 23 4 22 4 -27 2
-28 1 0 -70z"/>
<path d="M340 1425 l0 -5 5 0 5 0 0 5 0 5 -5 0 -5 0 0 -5z"/>
<path d="M502 1263 l2 -168 3 162 3 162 23 4 22 4 -27 2 -28 1 2 -167z"/>
<path d="M578 1423 l13 -5 6 6 6 6 -19 -1 -19 -1 13 -5z"/>
<path d="M1450 1425 l0 -5 5 0 5 0 0 5 0 5 -5 0 -5 0 0 -5z"/>
<path d="M1838 1423 l13 -5 6 6 6 6 -19 -1 -19 -1 13 -5z"/>
<path d="M1968 1423 l92 -4 93 4 92 3 -185 0 -185 0 93 -3z"/>
<path d="M2870 1425 l0 -5 5 0 5 0 0 5 0 5 -5 0 -5 0 0 -5z"/>
<path d="M3233 1423 l98 -4 92 4 92 3 -190 0 -190 0 98 -3z"/>
<path d="M3860 1425 l0 -5 5 0 5 0 0 5 0 5 -5 0 -5 0 0 -5z"/>
<path d="M4130 1425 l0 -5 5 0 5 0 0 5 0 5 -5 0 -5 0 0 -5z"/>
<path d="M4888 1423 l123 -4 117 4 117 3 -240 0 -240 0 123 -3z"/>
<path d="M5550 1425 l0 -5 5 0 5 0 0 5 0 5 -5 0 -5 0 0 -5z"/>
<path d="M6500 1425 l0 -5 5 0 5 0 0 5 0 5 -5 0 -5 0 0 -5z"/>
<path d="M6970 1425 l0 -5 5 0 5 0 0 5 0 5 -5 0 -5 0 0 -5z"/>
<path d="M7208 1423 l13 -5 6 6 6 6 -19 -1 -19 -1 13 -5z"/>
<path d="M8080 1425 l0 -5 5 0 5 0 0 5 0 5 -5 0 -5 0 0 -5z"/>
<path d="M8390 1425 l0 -5 5 0 5 0 0 5 0 5 -5 0 -5 0 0 -5z"/>
<path d="M9180 1425 l0 -5 5 0 5 0 0 5 0 5 -5 0 -5 0 0 -5z"/>
<path d="M9500 1425 l0 -5 5 0 5 0 0 5 0 5 -5 0 -5 0 0 -5z"/>
<path d="M9810 1425 l0 -5 5 0 5 0 0 5 0 5 -5 0 -5 0 0 -5z"/>
<path d="M9970 1425 l0 -5 5 0 5 0 0 5 0 5 -5 0 -5 0 0 -5z"/>
<path d="M10208 1423 l13 -5 6 6 6 6 -19 -1 -19 -1 13 -5z"/>
<path d="M10760 1425 l0 -5 5 0 5 0 0 5 0 5 -5 0 -5 0 0 -5z"/>
<path d="M8032 793 l-2 -513 -580 0 -579 0 -4 93 -3 92 0 -95 1 -95 583 -3
583 -2 4 12 5 13 -2 505 -3 505 -3 -512z"/>
<path d="M9865 880 l0 -425 2 212 3 213 -3 212 -2 213 0 -425z"/>
<path d="M10402 1203 l-2 -103 28 1 27 2 -22 4 -22 4 -4 97 -3 97 -2 -102z"/>
<path d="M2334 1110 l0 -175 3 88 4 87 -4 88 -3 87 0 -175z"/>
<path d="M5334 950 l0 -335 3 168 3 167 -3 168 -3 167 0 -335z"/>
<path d="M7921 1264 l1 -19 5 13 5 13 -6 6 -6 6 1 -19z"/>
<path d="M9885 800 l0 -485 2 242 3 243 -3 243 -2 242 0 -485z"/>
<path d="M10380 1196 l0 -84 -12 -5 -13 -5 18 -1 17 -1 0 90 0 90 -5 0 -5 0 0
-84z"/>
<path d="M9970 1255 l0 -5 5 0 5 0 0 5 0 5 -5 0 -5 0 0 -5z"/>
<path d="M10290 1255 l0 -5 5 0 5 0 0 5 0 5 -5 0 -5 0 0 -5z"/>
<path d="M2304 1105 l0 -150 3 78 4 78 -4 72 -3 72 0 -150z"/>
<path d="M3750 1181 l0 -69 -12 -5 -13 -5 18 -1 17 -1 0 75 0 75 -5 0 -5 0 0
-69z"/>
<path d="M5304 945 l0 -310 3 152 4 152 -4 158 -3 158 0 -310z"/>
<path d="M997 1233 l22 -4 4 -122 3 -122 -1 125 0 125 -25 2 -25 1 22 -5z"/>
<path d="M2253 1233 l17 -5 13 5 12 5 -30 0 -30 0 18 -5z"/>
<path d="M3770 1170 l0 -70 28 1 27 2 -22 4 -23 4 0 59 0 59 78 4 77 3 -82 2
-83 2 0 -70z"/>
<path d="M5253 1233 l17 -5 13 5 12 5 -30 0 -30 0 18 -5z"/>
<path d="M7922 853 l3 -388 2 382 3 382 23 4 22 4 -27 2 -28 1 2 -387z"/>
<path d="M9943 1233 l17 -5 13 5 12 5 -30 0 -30 0 18 -5z"/>
<path d="M10303 1233 l17 -5 13 5 12 5 -30 0 -30 0 18 -5z"/>
<path d="M340 1105 l0 -5 5 0 5 0 0 5 0 5 -5 0 -5 0 0 -5z"/>
<path d="M1450 1105 l0 -5 5 0 5 0 0 5 0 5 -5 0 -5 0 0 -5z"/>
<path d="M1760 1105 l0 -5 5 0 5 0 0 5 0 5 -5 0 -5 0 0 -5z"/>
<path d="M2280 1105 l0 -5 5 0 5 0 0 5 0 5 -5 0 -5 0 0 -5z"/>
<path d="M2870 1105 l0 -5 5 0 5 0 0 5 0 5 -5 0 -5 0 0 -5z"/>
<path d="M3500 1105 l0 -5 5 0 5 0 0 5 0 5 -5 0 -5 0 0 -5z"/>
<path d="M3673 1103 l17 -5 13 5 12 5 -30 0 -30 0 18 -5z"/>
<path d="M4130 1105 l0 -5 5 0 5 0 0 5 0 5 -5 0 -5 0 0 -5z"/>
<path d="M5080 1105 l0 -5 5 0 5 0 0 5 0 5 -5 0 -5 0 0 -5z"/>
<path d="M5284 945 l0 -170 3 82 4 82 -4 88 -3 88 0 -170z"/>
<path d="M5550 1105 l0 -5 5 0 5 0 0 5 0 5 -5 0 -5 0 0 -5z"/>
<path d="M6500 1105 l0 -5 5 0 5 0 0 5 0 5 -5 0 -5 0 0 -5z"/>
<path d="M6864 1013 l1 -98 370 0 370 0 -367 2 -367 3 -4 95 -3 95 0 -97z"/>
<path d="M6884 1020 l0 -95 3 48 4 47 -4 48 -3 47 0 -95z"/>
<path d="M6910 1105 l0 -5 5 0 5 0 0 5 0 5 -5 0 -5 0 0 -5z"/>
<path d="M6930 1105 l0 -5 5 0 5 0 0 5 0 5 -5 0 -5 0 0 -5z"/>
<path d="M7600 1105 l0 -5 5 0 5 0 0 5 0 5 -5 0 -5 0 0 -5z"/>
<path d="M8080 1105 l0 -5 5 0 5 0 0 5 0 5 -5 0 -5 0 0 -5z"/>
<path d="M8390 1105 l0 -5 5 0 5 0 0 5 0 5 -5 0 -5 0 0 -5z"/>
<path d="M9180 1105 l0 -5 5 0 5 0 0 5 0 5 -5 0 -5 0 0 -5z"/>
<path d="M9500 1105 l0 -5 5 0 5 0 0 5 0 5 -5 0 -5 0 0 -5z"/>
<path d="M9810 1105 l0 -5 5 0 5 0 0 5 0 5 -5 0 -5 0 0 -5z"/>
<path d="M9915 705 l0 -410 2 202 3 202 -3 208 -2 208 0 -410z"/>
<path d="M10024 1013 l1 -98 52 -3 52 -3 4 -62 3 -62 2 68 2 67 -55 0 -54 0
-4 95 -3 95 0 -97z"/>
<path d="M10040 1105 l0 -5 5 0 5 0 0 5 0 5 -5 0 -5 0 0 -5z"/>
<path d="M10133 1045 l0 -70 4 38 4 37 -4 33 -4 32 0 -70z"/>
<path d="M10303 1103 l17 -5 13 5 12 5 -30 0 -30 0 18 -5z"/>
<path d="M10760 1105 l0 -5 5 0 5 0 0 5 0 5 -5 0 -5 0 0 -5z"/>
<path d="M1812 888 l-2 -97 -27 -4 -28 -4 28 -2 28 -1 5 13 5 14 -4 89 -3 89
-2 -97z"/>
<path d="M3074 720 l0 -265 3 133 4 132 -4 133 -3 132 0 -265z"/>
<path d="M3094 640 l0 -325 3 163 3 162 -3 163 -3 162 0 -325z"/>
<path d="M3914 630 l0 -335 3 168 3 167 -3 168 -3 167 0 -335z"/>
<path d="M10131 944 l1 -19 5 13 5 13 -6 6 -6 6 1 -19z"/>
<path d="M10542 878 l-2 -88 -10 0 -9 0 -4 73 -3 72 -2 -77 -2 -78 15 0 16 0
5 13 5 14 -4 79 -3 79 -2 -87z"/>
<path d="M7600 935 l0 -5 5 0 5 0 0 5 0 5 -5 0 -5 0 0 -5z"/>
<path d="M10040 935 l0 -5 5 0 5 0 0 5 0 5 -5 0 -5 0 0 -5z"/>
<path d="M3884 625 l0 -310 3 152 4 152 -4 158 -3 158 0 -310z"/>
<path d="M617 913 l-7 -6 0 -314 0 -313 -185 0 -184 0 -4 95 -3 95 0 -97 1
-98 190 0 190 0 3 317 2 318 238 3 237 2 -236 3 -236 2 -6 -7z"/>
<path d="M1998 913 l123 -4 117 4 117 3 -240 0 -240 0 123 -3z"/>
<path d="M3228 913 l92 -4 93 4 92 3 -185 0 -185 0 93 -3z"/>
<path d="M3833 913 l17 -5 13 5 12 5 -30 0 -30 0 18 -5z"/>
<path d="M10463 913 l17 -5 13 5 12 5 -30 0 -30 0 18 -5z"/>
<path d="M340 785 l0 -5 5 0 5 0 0 5 0 5 -5 0 -5 0 0 -5z"/>
<path d="M1450 785 l0 -5 5 0 5 0 0 5 0 5 -5 0 -5 0 0 -5z"/>
<path d="M1838 783 l13 -5 6 6 6 6 -19 -1 -19 -1 13 -5z"/>
<path d="M2212 783 l337 -3 4 -63 4 -62 -1 65 -1 65 -340 0 -340 0 337 -2z"/>
<path d="M2870 785 l0 -5 5 0 5 0 0 5 0 5 -5 0 -5 0 0 -5z"/>
<path d="M3124 545 l0 -250 3 122 4 122 -4 128 -3 128 0 -250z"/>
<path d="M3500 785 l0 -5 5 0 5 0 0 5 0 5 -5 0 -5 0 0 -5z"/>
<path d="M3660 785 l0 -5 5 0 5 0 0 5 0 5 -5 0 -5 0 0 -5z"/>
<path d="M3864 625 l0 -170 3 82 4 82 -4 88 -3 88 0 -170z"/>
<path d="M4024 693 l1 -98 52 -3 52 -3 4 -62 3 -62 2 68 2 67 -55 0 -54 0 -4
95 -3 95 0 -97z"/>
<path d="M4040 785 l0 -5 5 0 5 0 0 5 0 5 -5 0 -5 0 0 -5z"/>
<path d="M4133 725 l0 -70 4 38 4 37 -4 33 -4 32 0 -70z"/>
<path d="M4303 783 l17 -5 13 5 12 5 -30 0 -30 0 18 -5z"/>
<path d="M5080 785 l0 -5 5 0 5 0 0 5 0 5 -5 0 -5 0 0 -5z"/>
<path d="M5444 693 l1 -98 52 -3 52 -3 4 -62 3 -62 2 68 2 67 -55 0 -54 0 -4
95 -3 95 0 -97z"/>
<path d="M5460 785 l0 -5 5 0 5 0 0 5 0 5 -5 0 -5 0 0 -5z"/>
<path d="M5553 725 l0 -70 4 38 4 37 -4 33 -4 32 0 -70z"/>
<path d="M5712 628 l2 -163 3 157 4 157 22 4 22 4 -27 2 -28 1 2 -162z"/>
<path d="M5788 783 l13 -5 6 6 6 6 -19 -1 -19 -1 13 -5z"/>
<path d="M6500 785 l0 -5 5 0 5 0 0 5 0 5 -5 0 -5 0 0 -5z"/>
<path d="M7012 783 l197 -3 203 3 203 2 -400 0 -400 0 197 -2z"/>
<path d="M8120 785 l0 -5 5 0 5 0 0 5 0 5 -5 0 -5 0 0 -5z"/>
<path d="M8140 785 l0 -5 5 0 5 0 0 5 0 5 -5 0 -5 0 0 -5z"/>
<path d="M8173 715 l0 -80 4 43 4 43 -4 37 -4 37 0 -80z"/>
<path d="M8193 725 l0 -70 4 38 4 37 -4 33 -4 32 0 -70z"/>
<path d="M8468 783 l13 -5 6 6 6 6 -19 -1 -19 -1 13 -5z"/>
<path d="M8638 783 l132 -4 133 4 132 3 -265 0 -265 0 133 -3z"/>
<path d="M9180 785 l0 -5 5 0 5 0 0 5 0 5 -5 0 -5 0 0 -5z"/>
<path d="M9500 785 l0 -5 5 0 5 0 0 5 0 5 -5 0 -5 0 0 -5z"/>
<path d="M9810 785 l0 -5 5 0 5 0 0 5 0 5 -5 0 -5 0 0 -5z"/>
<path d="M10220 785 l0 -5 5 0 5 0 0 5 0 5 -5 0 -5 0 0 -5z"/>
<path d="M10243 725 l0 -70 4 38 4 37 -4 33 -4 32 0 -70z"/>
<path d="M10290 785 l0 -5 5 0 5 0 0 5 0 5 -5 0 -5 0 0 -5z"/>
<path d="M10463 783 l17 -5 13 5 12 5 -30 0 -30 0 18 -5z"/>
<path d="M10573 783 l17 -5 13 5 12 5 -30 0 -30 0 18 -5z"/>
<path d="M10760 785 l0 -5 5 0 5 0 0 5 0 5 -5 0 -5 0 0 -5z"/>
<path d="M9234 500 l0 -165 3 83 4 82 -4 83 -3 82 0 -165z"/>
<path d="M2551 624 l1 -19 5 13 5 13 -6 6 -6 6 1 -19z"/>
<path d="M4131 624 l1 -19 5 13 5 13 -6 6 -6 6 1 -19z"/>
<path d="M5551 624 l1 -19 5 13 5 13 -6 6 -6 6 1 -19z"/>
<path d="M4040 615 l0 -5 5 0 5 0 0 5 0 5 -5 0 -5 0 0 -5z"/>
<path d="M5460 615 l0 -5 5 0 5 0 0 5 0 5 -5 0 -5 0 0 -5z"/>
<path d="M9430 615 l0 -5 5 0 5 0 0 5 0 5 -5 0 -5 0 0 -5z"/>
<path d="M5174 450 l0 -165 3 83 4 82 -4 83 -3 82 0 -165z"/>
<path d="M6594 450 l0 -165 3 83 4 82 -4 83 -3 82 0 -165z"/>
<path d="M2552 533 l2 -68 3 63 4 62 19 0 19 0 4 -127 3 -128 -1 130 0 130
-27 3 -28 3 2 -68z"/>
<path d="M5190 440 l0 -160 -502 -3 -503 -2 505 0 505 0 3 157 3 157 77 4 77
3 -82 2 -83 2 0 -160z"/>
<path d="M6610 440 l0 -160 -502 -3 -503 -2 505 0 505 0 3 157 3 157 77 4 77
3 -82 2 -83 2 0 -160z"/>
<path d="M8158 593 l32 -4 28 4 27 4 -60 0 -60 0 33 -4z"/>
<path d="M10208 593 l32 -4 28 4 27 4 -60 0 -60 0 33 -4z"/>
<path d="M250 465 l0 -5 5 0 5 0 0 5 0 5 -5 0 -5 0 0 -5z"/>
<path d="M1490 465 l0 -5 5 0 5 0 0 5 0 5 -5 0 -5 0 0 -5z"/>
<path d="M1510 465 l0 -5 5 0 5 0 0 5 0 5 -5 0 -5 0 0 -5z"/>
<path d="M1543 395 l0 -80 4 43 4 43 -4 37 -4 37 0 -80z"/>
<path d="M1563 405 l0 -70 4 38 4 37 -4 33 -4 32 0 -70z"/>
<path d="M2800 465 l0 -5 5 0 5 0 0 5 0 5 -5 0 -5 0 0 -5z"/>
<path d="M2823 405 l0 -70 4 38 4 37 -4 33 -4 32 0 -70z"/>
<path d="M3540 465 l0 -5 5 0 5 0 0 5 0 5 -5 0 -5 0 0 -5z"/>
<path d="M3560 465 l0 -5 5 0 5 0 0 5 0 5 -5 0 -5 0 0 -5z"/>
<path d="M3593 395 l0 -80 4 43 4 43 -4 37 -4 37 0 -80z"/>
<path d="M3613 405 l0 -70 4 38 4 37 -4 33 -4 32 0 -70z"/>
<path d="M4220 465 l0 -5 5 0 5 0 0 5 0 5 -5 0 -5 0 0 -5z"/>
<path d="M4243 405 l0 -70 4 38 4 37 -4 33 -4 32 0 -70z"/>
<path d="M5640 465 l0 -5 5 0 5 0 0 5 0 5 -5 0 -5 0 0 -5z"/>
<path d="M5663 405 l0 -70 4 38 4 37 -4 33 -4 32 0 -70z"/>
<path d="M6884 380 l0 -95 3 48 4 47 -4 48 -3 47 0 -95z"/>
<path d="M6910 465 l0 -5 5 0 5 0 0 5 0 5 -5 0 -5 0 0 -5z"/>
<path d="M6930 465 l0 -5 5 0 5 0 0 5 0 5 -5 0 -5 0 0 -5z"/>
<path d="M8284 373 l1 -98 505 0 505 0 -502 2 -502 3 -4 95 -3 95 0 -97z"/>
<path d="M8304 380 l0 -95 3 48 4 47 -4 48 -3 47 0 -95z"/>
<path d="M8330 465 l0 -5 5 0 5 0 0 5 0 5 -5 0 -5 0 0 -5z"/>
<path d="M8350 465 l0 -5 5 0 5 0 0 5 0 5 -5 0 -5 0 0 -5z"/>
<path d="M9540 465 l0 -5 5 0 5 0 0 5 0 5 -5 0 -5 0 0 -5z"/>
<path d="M9560 465 l0 -5 5 0 5 0 0 5 0 5 -5 0 -5 0 0 -5z"/>
<path d="M9593 395 l0 -80 4 43 4 43 -4 37 -4 37 0 -80z"/>
<path d="M9613 405 l0 -70 4 38 4 37 -4 33 -4 32 0 -70z"/>
<path d="M10330 465 l0 -5 5 0 5 0 0 5 0 5 -5 0 -5 0 0 -5z"/>
<path d="M10350 465 l0 -5 5 0 5 0 0 5 0 5 -5 0 -5 0 0 -5z"/>
<path d="M10383 395 l0 -80 4 43 4 43 -4 37 -4 37 0 -80z"/>
<path d="M10403 405 l0 -70 4 38 4 37 -4 33 -4 32 0 -70z"/>
<path d="M250 295 l0 -5 5 0 5 0 0 5 0 5 -5 0 -5 0 0 -5z"/>
<path d="M590 295 l0 -5 5 0 5 0 0 5 0 5 -5 0 -5 0 0 -5z"/>
<path d="M8010 295 l0 -5 5 0 5 0 0 5 0 5 -5 0 -5 0 0 -5z"/>
<path d="M11010 295 l0 -5 5 0 5 0 0 5 0 5 -5 0 -5 0 0 -5z"/>
<path d="M1793 273 l298 -3 292 3 292 2 -590 0 -590 0 298 -2z"/>
<path d="M2853 273 l97 -4 98 4 97 3 -195 0 -195 0 98 -3z"/>
<path d="M3643 273 l97 -4 98 4 97 3 -195 0 -195 0 98 -3z"/>
<path d="M9643 273 l97 -4 98 4 97 3 -195 0 -195 0 98 -3z"/>
  </g>
</svg>