<svg version="1.0" xmlns="http://www.w3.org/2000/svg"
 width="100%" height="auto" viewBox="0 0 1129.000000 417.000000"
 preserveAspectRatio="xMidYMid meet">
<g transform="translate(0.000000,417.000000) scale(0.100000,-0.100000)"
fill="#cc9933" stroke="none">
<path fill="#cc9933" stroke="none" d="M190 3360 l0 -640 155 0 154 0 3 158 3
157 235 0 235 0 3 -62 3 -63 -216 0 -215 0 0 -100 0 -100 -180 0 -180 0 0
-160 c0 -152 1 -160 20 -160 18 0 20 -8 22 -97 l3 -98 505 0 505 0 3 157 3
157 77 3 77 3 2 198 3 197 -60 0 -60 0 0 65 c0 58 -2 65 -20 65 -18 0 -20 7
-20 60 l0 59 78 3 77 3 3 193 2 192 -60 0 -60 0 0 65 c0 58 -2 65 -20 65 -19
0 -20 7 -20 95 l0 95 -55 0 -54 0 -3 63 -3 62 -472 3 -473 2 0 -640z"/>
<path fill="#cc9933" stroke="none" d="M1230 3765 c0 -69 -3 -85 -15 -85 -12
0 -15 14 -15 70 l0 70 -30 0 c-20 0 -30 5 -30 15 0 11 12 15 45 15 l45 0 0
-85z"/>
<path fill="#cc9933" stroke="none" d="M1180 3740 c0 -53 -2 -60 -20 -60 -18
0 -20 7 -20 60 0 53 2 60 20 60 18 0 20 -7 20 -60z"/>
<path fill="#cc9933" stroke="none" d="M978 3613 l3 -63 -216 0 -215 0 0 -95
c0 -95 0 -95 -25 -95 l-25 0 0 153 c0 85 3 157 7 161 4 3 110 5 237 4 l231 -3
3 -62z"/>
<path fill="#cc9933" stroke="none" d="M978 3518 c-4 -10 -53 -14 -191 -16
l-187 -2 0 -70 c0 -56 -3 -70 -15 -70 -12 0 -15 16 -15 85 l0 85 206 0 c160 0
205 -3 202 -12z"/>
<path fill="#cc9933" stroke="none" d="M1380 3355 l0 -175 -75 0 -75 0 0 -70
c0 -56 -3 -70 -15 -70 -12 0 -15 16 -15 85 l0 85 80 0 80 0 0 144 0 145 -32 3
c-52 5 -47 28 6 28 l46 0 0 -175z"/>
<path fill="#cc9933" stroke="none" d="M980 3420 l0 -60 -180 0 -180 0 0 60 0
60 180 0 180 0 0 -60z"/>
<path fill="#cc9933" stroke="none" d="M1340 3355 l0 -125 -80 0 -80 0 0 -95
c0 -88 -1 -95 -20 -95 -19 0 -20 7 -20 160 l0 160 75 0 75 0 0 60 c0 57 1 60
25 60 l25 0 0 -125z"/>
<path fill="#cc9933" stroke="none" d="M978 2878 c-4 -10 -53 -14 -191 -16
l-187 -2 0 -75 c0 -60 -3 -75 -15 -75 -12 0 -15 17 -15 90 l0 90 206 0 c160 0
205 -3 202 -12z"/>
<path fill="#cc9933" stroke="none" d="M1382 2800 c2 -49 2 -130 0 -180 l-3
-90 -74 0 -74 0 -3 -157 -3 -158 -485 0 -485 0 0 84 c0 59 4 86 13 89 9 3 12
-16 12 -72 l0 -76 460 0 460 0 0 160 0 160 80 0 80 0 0 149 0 150 -32 3 c-52
5 -47 28 5 28 l46 0 3 -90z"/>
<path fill="#cc9933" stroke="none" d="M980 2780 l0 -60 155 0 155 0 0 60 c0
57 1 60 25 60 l25 0 0 -130 0 -130 -80 0 -80 0 0 -160 0 -160 -440 0 -440 0 0
65 0 65 420 0 421 0 -3 158 -3 157 -260 3 -260 2 3 65 4 65 179 0 179 0 0 -60z"/>
<path fill="#cc9933" stroke="none" d="M1450 3841 c0 -158 0 -160 23 -163 21
-3 22 -8 25 -100 l3 -98 54 0 55 0 0 -60 c0 -53 2 -60 20 -60 18 0 20 -8 22
-97 l3 -98 58 -3 57 -3 0 -59 c0 -53 2 -60 20 -60 18 0 20 -8 22 -97 l3 -98
53 -3 52 -3 0 -60 0 -59 160 0 160 0 0 160 0 160 80 0 80 0 0 160 0 160 80 0
80 0 0 160 0 160 80 0 80 0 0 60 c0 53 2 60 20 60 19 0 20 -7 20 -125 l0 -125
-80 0 -80 0 0 -160 0 -160 -80 0 -80 0 0 -160 0 -160 -81 0 -81 0 4 -325 4
-325 -123 0 -123 0 0 65 0 65 100 0 100 0 0 160 0 161 -157 -3 -158 -3 -3
-157 -3 -158 26 0 25 0 0 -100 0 -100 190 0 190 0 0 325 0 325 80 0 80 0 0
160 0 160 80 0 80 0 0 160 0 159 78 3 77 3 3 193 2 192 -54 0 -55 0 -3 63 -3
62 -157 3 -158 3 0 -161 0 -160 -80 0 -80 0 0 -160 0 -160 -100 0 -100 0 0 95
0 95 -55 0 -54 0 -3 63 c-3 56 -5 62 -25 65 -22 3 -23 8 -23 98 l0 94 -55 0
-55 0 0 65 0 65 -160 0 -160 0 0 -159z"/>
<path fill="#cc9933" stroke="none" d="M1860 3765 c0 -69 -3 -85 -15 -85 -12
0 -15 14 -15 70 l0 70 -30 0 c-20 0 -30 5 -30 15 0 11 12 15 45 15 l45 0 0
-85z"/>
<path fill="#cc9933" stroke="none" d="M2808 3678 l-3 -173 -77 -3 -78 -3 0
-159 0 -160 -80 0 -80 0 0 -160 0 -160 -80 0 -80 0 0 -325 0 -325 -170 0 -170
0 0 91 c0 68 3 90 13 87 8 -3 13 -30 15 -76 l3 -72 145 0 145 0 -1 238 c0 130
-1 276 0 325 l0 87 75 0 75 0 0 160 0 160 80 0 80 0 0 160 0 160 80 0 80 0 0
145 0 145 -30 0 c-20 0 -30 5 -30 15 0 11 12 15 45 15 l45 0 -2 -172z"/>
<path fill="#cc9933" stroke="none" d="M1810 3740 c0 -53 -2 -60 -20 -60 -18
0 -20 7 -20 60 0 53 2 60 20 60 18 0 20 -7 20 -60z"/>
<path fill="#cc9933" stroke="none" d="M1540 3605 l0 -75 35 0 c24 0 35 -5 35
-15 0 -11 -12 -15 -45 -15 l-45 0 0 90 c0 53 4 90 10 90 6 0 10 -32 10 -75z"/>
<path fill="#cc9933" stroke="none" d="M1610 3615 c0 -58 -2 -65 -20 -65 -18
0 -20 7 -20 65 0 58 2 65 20 65 18 0 20 -7 20 -65z"/>
<path fill="#cc9933" stroke="none" d="M2020 3445 c0 -69 -3 -85 -15 -85 -12
0 -15 14 -15 70 l0 70 -30 0 c-20 0 -30 5 -30 15 0 11 12 15 45 15 l45 0 0
-85z"/>
<path fill="#cc9933" stroke="none" d="M1970 3420 c0 -53 -2 -60 -20 -60 -18
0 -20 7 -20 60 0 53 2 60 20 60 18 0 20 -7 20 -60z"/>
<path fill="#cc9933" stroke="none" d="M1700 3285 l0 -75 36 0 c51 0 39 -24
-14 -28 l-42 -3 0 90 c0 54 4 91 10 91 6 0 10 -32 10 -75z"/>
<path fill="#cc9933" stroke="none" d="M1768 3292 c3 -61 2 -62 -23 -62 -24 0
-25 2 -25 58 0 63 5 74 30 70 11 -2 16 -19 18 -66z"/>
<path fill="#cc9933" stroke="none" d="M1860 2965 l0 -75 30 0 c20 0 30 -5 30
-16 0 -12 -9 -14 -42 -12 l-43 3 -3 74 c-3 78 1 101 18 101 6 0 10 -30 10 -75z"/>
<path fill="#cc9933" stroke="none" d="M1920 2975 c0 -58 -2 -65 -20 -65 -18
0 -20 7 -20 65 0 58 2 65 20 65 18 0 20 -7 20 -65z"/>
<path fill="#cc9933" stroke="none" d="M2870 3360 l0 -640 160 0 160 0 0 160
0 160 235 0 235 0 0 -65 0 -65 -216 0 -215 0 1 -97 c1 -54 1 -200 1 -325 l-1
-228 -120 0 -120 0 0 65 0 65 100 0 100 0 0 160 0 160 -160 0 -160 0 0 -159
c0 -158 0 -160 23 -163 21 -3 22 -8 25 -100 l3 -98 189 0 190 0 0 325 0 325
180 0 180 0 0 -60 0 -60 160 0 160 0 0 60 c0 53 2 60 20 60 24 0 26 -34 22
-352 l-3 -228 -119 0 -120 0 0 65 0 65 100 0 100 0 0 160 0 160 -160 0 -160 0
0 -159 c0 -158 0 -160 23 -163 21 -3 22 -8 25 -100 l3 -98 189 0 190 0 0 360
0 360 -55 0 -55 0 0 65 c0 63 -1 65 -25 65 -24 0 -25 3 -25 60 l0 60 80 0 80
0 0 195 0 195 -55 0 -55 0 0 65 c0 63 -1 65 -25 65 -25 0 -25 0 -25 95 l0 95
-55 0 -55 0 0 65 0 65 -475 0 -475 0 0 -640z"/>
<path fill="#cc9933" stroke="none" d="M3910 3765 c0 -50 -4 -85 -10 -85 -6 0
-10 30 -10 70 l0 70 -35 0 c-24 0 -35 5 -35 15 0 11 12 15 45 15 l45 0 0 -85z"/>
<path fill="#cc9933" stroke="none" d="M3870 3740 c0 -57 -1 -60 -25 -60 -24
0 -25 3 -25 60 0 57 1 60 25 60 24 0 25 -3 25 -60z"/>
<path fill="#cc9933" stroke="none" d="M3660 3615 l0 -65 -215 0 -215 0 0 -95
c0 -88 -1 -95 -20 -95 -19 0 -20 7 -20 160 l0 160 235 0 235 0 0 -65z"/>
<path fill="#cc9933" stroke="none" d="M3660 3515 c0 -13 -28 -15 -190 -15
l-190 0 0 -70 c0 -56 -3 -70 -15 -70 -12 0 -15 16 -15 85 l0 85 205 0 c176 0
205 -2 205 -15z"/>
<path fill="#cc9933" stroke="none" d="M4070 3355 l0 -175 -80 0 -80 0 0 -70
c0 -40 -4 -70 -10 -70 -6 0 -10 35 -10 85 l0 85 75 0 75 0 0 145 0 145 -30 0
c-20 0 -30 5 -30 15 0 11 12 15 45 15 l45 0 0 -175z"/>
<path fill="#cc9933" stroke="none" d="M3660 3420 l0 -60 -180 0 -180 0 0 60
0 60 180 0 180 0 0 -60z"/>
<path fill="#cc9933" stroke="none" d="M4020 3355 l0 -125 -80 0 -80 0 0 -95
c0 -88 -1 -95 -20 -95 -19 0 -20 7 -20 160 l0 160 80 0 80 0 0 60 c0 53 2 60
20 60 19 0 20 -7 20 -125z"/>
<path fill="#cc9933" stroke="none" d="M3660 2875 c0 -13 -28 -15 -190 -15
l-190 0 0 -325 0 -325 -170 0 -170 0 0 90 c0 53 4 90 10 90 6 0 10 -32 10 -75
l0 -75 145 0 145 0 0 325 0 325 205 0 c176 0 205 -2 205 -15z"/>
<path fill="#cc9933" stroke="none" d="M4070 2550 l0 -340 -170 0 -170 0 0 90
c0 53 4 90 10 90 6 0 10 -32 10 -75 l0 -75 145 0 145 0 0 310 0 310 -30 0
c-20 0 -30 5 -30 15 0 11 12 15 45 15 l45 0 0 -340z"/>
<path fill="#cc9933" stroke="none" d="M4290 3840 l0 -159 -77 -3 -78 -3 -3
-477 -2 -478 160 0 160 0 0 480 0 480 315 0 315 0 0 -65 0 -65 -295 0 -295 0
2 -420 3 -420 -102 0 -103 0 0 -65 c0 -58 -2 -65 -20 -65 -18 0 -20 7 -20 65
0 37 -4 65 -10 65 -6 0 -10 -32 -10 -75 l0 -75 30 0 c20 0 30 -5 30 -15 0 -11
-12 -15 -45 -15 l-45 0 0 90 c0 53 -4 90 -10 90 -6 0 -10 -40 -10 -100 l0
-100 55 0 55 0 0 -59 c0 -54 2 -60 23 -63 21 -3 22 -8 25 -100 l3 -98 504 0
505 0 0 160 0 160 80 0 80 0 0 520 0 520 -55 0 -55 0 0 65 c0 63 -1 65 -25 65
-25 0 -25 0 -25 95 l0 95 -55 0 -55 0 0 65 0 65 -475 0 -475 0 0 -160z"/>
<path fill="#cc9933" stroke="none" d="M5330 3765 c0 -50 -4 -85 -10 -85 -6 0
-10 30 -10 70 l0 70 -35 0 c-24 0 -35 5 -35 15 0 11 12 15 45 15 l45 0 0 -85z"/>
<path fill="#cc9933" stroke="none" d="M5290 3740 c0 -57 -1 -60 -25 -60 -24
0 -25 3 -25 60 0 57 1 60 25 60 24 0 25 -3 25 -60z"/>
<path fill="#cc9933" stroke="none" d="M5080 3515 c0 -13 -37 -15 -270 -15
l-270 0 2 -395 c3 -346 1 -395 -12 -395 -13 0 -15 51 -12 410 l2 410 280 0
c242 0 280 -2 280 -15z"/>
<path fill="#cc9933" stroke="none" d="M5490 3030 l0 -500 -80 0 -80 0 0 -160
0 -160 -485 0 -485 0 0 90 c0 53 4 90 10 90 6 0 10 -32 10 -75 l0 -75 465 0
465 0 0 160 0 160 75 0 75 0 0 470 0 470 -30 0 c-20 0 -30 5 -30 15 0 11 12
15 45 15 l45 0 0 -500z"/>
<path fill="#cc9933" stroke="none" d="M5080 3100 l0 -380 160 0 160 0 0 380
c0 372 0 380 20 380 19 0 20 -9 22 -382 2 -211 2 -413 0 -450 l-3 -68 -81 0
-81 0 7 -160 7 -160 -441 0 -440 0 0 65 0 65 415 0 415 0 0 160 0 160 -340 0
-340 0 0 385 0 385 260 0 260 0 0 -380z"/>
<path fill="#cc9933" stroke="none" d="M5557 3993 c-4 -3 -7 -291 -7 -640 l0
-633 160 0 160 0 2 318 3 317 78 3 77 3 0 -66 0 -65 -55 0 -55 0 0 -485 0
-485 -125 0 -125 0 0 65 0 65 100 0 100 0 0 160 0 161 -157 -3 -158 -3 -3
-157 -3 -158 26 0 25 0 0 -100 0 -100 193 2 192 3 2 260 c1 143 2 360 3 483 0
215 1 222 20 222 18 0 20 -7 20 -60 0 -53 2 -60 20 -60 18 0 20 -8 22 -97 l3
-98 58 -3 57 -3 0 -59 0 -60 155 0 155 0 0 60 c0 57 1 60 25 60 24 0 25 -2 25
-65 l0 -64 -102 -3 -103 -3 -3 -62 c-3 -55 -6 -63 -22 -63 -18 0 -20 7 -20 65
0 37 -4 65 -10 65 -6 0 -10 -32 -10 -75 l0 -75 30 0 c20 0 30 -5 30 -16 0 -12
-9 -14 -42 -12 l-43 3 -3 88 c-2 49 -7 87 -13 87 -6 0 -9 -37 -7 -97 l3 -98
53 -3 52 -3 0 -60 c0 -56 1 -59 25 -59 l25 0 0 -100 0 -100 350 0 350 0 0 840
0 840 -55 0 -55 0 0 65 0 65 -160 0 -160 0 0 -640 0 -640 160 0 160 0 0 540
c0 532 0 540 20 540 19 0 20 -9 22 -542 2 -299 2 -645 0 -770 l-2 -228 -280 0
-280 0 0 65 0 65 260 0 260 0 0 160 0 160 -182 0 -183 0 3 100 3 100 -60 0
-61 0 0 65 c0 58 -2 65 -20 65 -19 0 -20 7 -20 95 l0 95 -55 0 -54 0 -3 63
c-3 56 -5 62 -25 65 -22 3 -23 8 -23 98 l0 94 -55 0 -55 0 0 65 c0 63 -1 65
-25 65 -25 0 -25 0 -25 95 l0 95 -55 0 -55 0 0 65 0 65 -233 0 c-129 0 -237
-3 -240 -7z"/>
<path fill="#cc9933" stroke="none" d="M6120 3765 c0 -50 -4 -85 -10 -85 -6 0
-10 30 -10 70 l0 70 -35 0 c-24 0 -35 5 -35 15 0 11 12 15 45 15 l45 0 0 -85z"/>
<path fill="#cc9933" stroke="none" d="M7070 3030 l0 -820 -330 0 -330 0 0 91
c0 68 3 90 13 87 8 -3 13 -30 15 -76 l3 -72 299 0 300 0 0 790 0 790 -30 0
c-20 0 -30 5 -30 15 0 11 12 15 45 15 l45 0 0 -820z"/>
<path fill="#cc9933" stroke="none" d="M6080 3740 c0 -57 -1 -60 -25 -60 -24
0 -25 3 -25 60 0 57 1 60 25 60 24 0 25 -3 25 -60z"/>
<path fill="#cc9933" stroke="none" d="M6280 3445 c0 -69 -3 -85 -15 -85 -12
0 -15 14 -15 70 l0 70 -30 0 c-20 0 -30 5 -30 15 0 11 12 15 45 15 l45 0 0
-85z"/>
<path fill="#cc9933" stroke="none" d="M6230 3420 c0 -53 -2 -60 -20 -60 -18
0 -20 7 -20 60 0 53 2 60 20 60 18 0 20 -7 20 -60z"/>
<path fill="#cc9933" stroke="none" d="M6030 3195 c0 -11 -11 -15 -35 -15
l-36 0 1 -237 c1 -131 1 -349 0 -485 l0 -248 -170 0 -170 0 0 91 c0 68 3 90
13 87 8 -3 13 -30 15 -76 l3 -72 144 0 145 0 0 485 0 485 45 0 c33 0 45 -4 45
-15z"/>
<path fill="#cc9933" stroke="none" d="M6440 3125 c0 -69 -3 -85 -15 -85 -12
0 -15 14 -15 70 l0 70 -30 0 c-20 0 -30 5 -30 15 0 11 12 15 45 15 l45 0 0
-85z"/>
<path fill="#cc9933" stroke="none" d="M6390 3100 c0 -53 -2 -60 -20 -60 -18
0 -20 7 -20 60 0 53 2 60 20 60 18 0 20 -7 20 -60z"/>
<path fill="#cc9933" stroke="none" d="M6120 2965 l0 -75 36 0 c51 0 39 -24
-14 -28 l-42 -3 0 90 c0 54 4 91 10 91 6 0 10 -32 10 -75z"/>
<path fill="#cc9933" stroke="none" d="M6188 2972 c3 -61 2 -62 -23 -62 -24 0
-25 2 -25 58 0 63 5 74 30 70 11 -2 16 -19 18 -66z"/>
<path fill="#cc9933" stroke="none" d="M6592 2800 c2 -67 0 -90 -9 -90 -9 0
-13 22 -13 74 l0 75 -32 3 c-52 5 -47 28 5 28 l46 0 3 -90z"/>
<path fill="#cc9933" stroke="none" d="M190 1270 c0 -788 0 -800 20 -800 18 0
20 -8 22 -97 l3 -98 190 0 190 0 3 318 2 317 235 0 235 0 0 195 0 195 -55 0
-55 0 0 65 0 65 -180 0 -180 0 0 60 0 60 393 2 392 3 3 193 2 192 -60 0 -60 0
0 65 0 65 -550 0 -550 0 0 -800z"/>
<path fill="#cc9933" stroke="none" d="M1380 1745 l0 -175 -390 0 -390 0 0
-70 c0 -56 -3 -70 -15 -70 -12 0 -15 16 -15 85 l0 85 395 0 395 0 0 144 0 145
-32 3 c-52 5 -47 28 6 28 l46 0 0 -175z"/>
<path fill="#cc9933" stroke="none" d="M1340 1745 l0 -125 -395 0 -395 0 0
-95 c0 -95 0 -95 -25 -95 l-26 0 3 158 3 157 393 3 392 2 0 60 c0 57 1 60 25
60 l25 0 0 -125z"/>
<path fill="#cc9933" stroke="none" d="M1070 1105 l0 -175 -235 0 -235 0 -2
-317 -3 -318 -170 0 -170 0 0 84 c0 59 4 86 13 88 9 4 12 -15 12 -71 l0 -76
145 0 145 0 0 320 0 320 235 0 235 0 0 145 0 145 -30 0 c-20 0 -30 5 -30 15 0
11 12 15 45 15 l45 0 0 -175z"/>
<path fill="#cc9933" stroke="none" d="M1020 1105 l0 -125 -235 0 -235 0 0
-320 0 -320 -125 0 -125 0 0 65 0 65 100 0 100 0 2 318 3 317 238 3 237 2 0
60 c0 53 2 60 20 60 19 0 20 -7 20 -125z"/>
<path fill="#cc9933" stroke="none" d="M1450 1271 l0 -800 23 -3 c21 -3 22 -8
25 -100 l3 -98 584 0 585 0 0 195 0 195 -55 0 -54 0 -3 63 -3 62 -337 3 -338
2 0 60 0 60 235 0 235 0 0 195 0 195 -55 0 -55 0 0 65 0 65 -180 0 -180 0 0
60 0 60 395 0 395 0 0 195 0 195 -55 0 -54 0 -3 63 -3 62 -552 3 -553 2 0
-799z"/>
<path fill="#cc9933" stroke="none" d="M2650 1745 l0 -175 -395 0 -395 0 0
-70 c0 -56 -3 -70 -15 -70 -12 0 -15 16 -15 85 l0 85 395 0 395 0 0 145 0 145
-30 0 c-20 0 -30 5 -30 15 0 11 12 15 45 15 l45 0 0 -175z"/>
<path fill="#cc9933" stroke="none" d="M2600 1745 l0 -125 -395 0 -395 0 0
-95 c0 -88 -1 -95 -20 -95 -19 0 -20 7 -20 160 l0 160 395 0 395 0 0 60 c0 53
2 60 20 60 19 0 20 -7 20 -125z"/>
<path fill="#cc9933" stroke="none" d="M2330 1105 l0 -175 -235 0 -235 0 0
-70 c0 -56 -3 -70 -15 -70 -12 0 -15 16 -15 85 l0 85 240 0 240 0 0 145 0 145
-35 0 c-24 0 -35 5 -35 15 0 11 12 15 45 15 l45 0 0 -175z"/>
<path fill="#cc9933" stroke="none" d="M2289 1105 l0 -125 -239 0 -240 0 0
-95 c0 -88 -1 -95 -20 -95 -19 0 -20 7 -20 160 l0 160 235 0 235 0 0 60 c0 57
1 60 25 60 l24 0 0 -125z"/>
<path fill="#cc9933" stroke="none" d="M2650 465 l0 -175 -565 0 -565 0 0 90
c0 53 4 90 10 90 6 0 10 -32 10 -75 l0 -75 540 0 540 0 0 145 0 145 -30 0
c-20 0 -30 5 -30 15 0 11 12 15 45 15 l45 0 0 -175z"/>
<path fill="#cc9933" stroke="none" d="M2600 465 l0 -125 -515 0 -515 0 0 65
0 65 495 0 495 0 0 60 c0 53 2 60 20 60 19 0 20 -7 20 -125z"/>
<path fill="#cc9933" stroke="none" d="M2717 2063 c-4 -3 -7 -363 -7 -800 l0
-793 25 0 25 0 0 -100 0 -100 190 0 190 0 0 320 0 320 180 0 180 0 0 -219 0
-220 23 -3 c21 -3 22 -8 25 -100 l3 -98 189 0 190 0 0 355 0 355 -55 0 -55 0
0 65 c0 58 -2 65 -20 65 -18 0 -20 7 -20 60 l0 60 75 0 75 0 0 195 0 195 -55
0 -55 0 0 65 c0 58 -2 65 -20 65 -19 0 -20 7 -20 95 l0 95 -60 0 -60 0 0 65 0
65 -468 0 c-258 0 -472 -3 -475 -7z"/>
<path fill="#cc9933" stroke="none" d="M3750 1835 c0 -50 -4 -85 -10 -85 -6 0
-10 30 -10 70 l0 70 -35 0 c-24 0 -35 5 -35 15 0 11 12 15 45 15 l45 0 0 -85z"/>
<path fill="#cc9933" stroke="none" d="M3710 1810 c0 -57 -1 -60 -25 -60 -24
0 -25 3 -25 60 0 57 1 60 25 60 24 0 25 -3 25 -60z"/>
<path fill="#cc9933" stroke="none" d="M3500 1685 l0 -65 -215 0 -215 0 0 -95
c0 -88 -1 -95 -20 -95 -19 0 -20 7 -20 160 l0 160 235 0 235 0 0 -65z"/>
<path fill="#cc9933" stroke="none" d="M3500 1585 c0 -13 -28 -15 -190 -15
l-190 0 0 -70 c0 -40 -4 -70 -10 -70 -6 0 -10 35 -10 85 l0 85 200 0 c171 0
200 -2 200 -15z"/>
<path fill="#cc9933" stroke="none" d="M3910 1425 l0 -175 -80 0 -80 0 0 -70
c0 -40 -4 -70 -10 -70 -6 0 -10 35 -10 85 l0 85 80 0 80 0 0 145 0 145 -35 0
c-24 0 -35 5 -35 15 0 11 12 15 45 15 l45 0 0 -175z"/>
<path fill="#cc9933" stroke="none" d="M3500 1490 l0 -60 -180 0 -180 0 0 60
0 60 180 0 180 0 0 -60z"/>
<path fill="#cc9933" stroke="none" d="M3869 1425 l0 -125 -79 0 -80 0 0 -95
c0 -95 0 -95 -25 -95 l-25 0 0 160 0 160 80 0 80 0 0 60 c0 57 1 60 25 60 l24
0 0 -125z"/>
<path fill="#cc9933" stroke="none" d="M3500 1045 l0 -65 -216 0 -217 0 5
-320 5 -320 -124 0 -123 0 0 65 0 65 100 0 100 0 0 320 0 320 235 0 235 0 0
-65z"/>
<path fill="#cc9933" stroke="none" d="M3500 945 c0 -13 -28 -15 -190 -15
l-190 0 0 -320 0 -320 -170 0 -170 0 0 91 c0 68 3 90 13 87 8 -3 13 -30 15
-76 l3 -72 144 0 145 0 0 320 0 320 200 0 c171 0 200 -2 200 -15z"/>
<path fill="#cc9933" stroke="none" d="M3910 625 l0 -335 -170 0 -170 0 0 90
c0 53 4 90 10 90 6 0 10 -32 10 -75 l0 -75 150 0 150 0 0 305 0 305 -35 0
c-24 0 -35 5 -35 15 0 11 12 15 45 15 l45 0 0 -335z"/>
<path fill="#cc9933" stroke="none" d="M3865 625 l0 -285 -122 0 -123 0 0 65
0 65 100 0 100 0 0 220 0 220 23 0 22 0 0 -285z"/>
<path fill="#cc9933" stroke="none" d="M4137 2063 c-4 -3 -7 -75 -7 -160 l0
-153 -75 0 -75 0 0 -480 c0 -470 0 -480 20 -480 18 0 20 -8 22 -97 l3 -98 53
-3 52 -3 0 -60 c0 -56 1 -59 25 -59 l25 0 0 -100 0 -100 508 2 507 3 3 157 3
158 74 0 75 0 0 355 0 355 -55 0 -55 0 0 65 0 65 -235 0 -235 0 0 -160 0 -160
75 0 75 0 0 -160 0 -160 -255 0 -255 0 0 380 0 380 393 2 392 3 3 193 2 192
-60 0 -60 0 0 65 0 65 -468 0 c-258 0 -472 -3 -475 -7z"/>
<path fill="#cc9933" stroke="none" d="M5170 1745 l0 -175 -395 0 -395 0 0
-390 c0 -253 -4 -390 -10 -390 -7 0 -10 142 -10 405 l0 405 395 0 395 0 0 144
0 145 -32 3 c-52 5 -47 28 6 28 l46 0 0 -175z"/>
<path fill="#cc9933" stroke="none" d="M5130 1745 l0 -125 -395 0 -395 0 0
-415 0 -415 -25 0 -25 0 2 478 3 477 393 3 392 2 0 60 c0 57 1 60 25 60 l25 0
0 -125z"/>
<path fill="#cc9933" stroke="none" d="M5330 945 l0 -335 -80 0 -80 0 0 -160
0 -160 -485 0 -485 0 0 91 c0 68 3 90 13 87 8 -3 13 -30 15 -76 l3 -72 459 0
460 0 0 160 0 160 80 0 80 0 0 305 0 305 -35 0 c-24 0 -35 5 -35 15 0 11 12
15 45 15 l45 0 0 -335z"/>
<path fill="#cc9933" stroke="none" d="M5285 945 l0 -285 -77 0 -78 0 0 -160
0 -160 -440 0 -440 0 0 65 0 65 415 0 414 0 3 158 3 157 78 3 77 3 0 219 0
220 23 0 22 0 0 -285z"/>
<path fill="#cc9933" stroke="none" d="M4070 715 l0 -75 30 0 c20 0 30 -5 30
-16 0 -12 -9 -14 -42 -12 l-43 3 -3 74 c-3 78 1 101 18 101 6 0 10 -30 10 -75z"/>
<path fill="#cc9933" stroke="none" d="M4130 725 c0 -58 -2 -65 -20 -65 -18 0
-20 7 -20 65 0 58 2 65 20 65 18 0 20 -7 20 -65z"/>
<path fill="#cc9933" stroke="none" d="M5400 1430 c0 -629 0 -640 20 -640 18
0 20 -8 22 -97 l3 -98 53 -3 52 -3 0 -60 c0 -56 1 -59 25 -59 l25 0 0 -100 0
-100 508 2 507 3 3 157 3 158 74 0 75 0 0 675 0 675 -55 0 -55 0 0 65 0 66
-157 -3 -158 -3 -3 -637 -2 -638 -255 0 -255 0 0 575 0 575 -60 0 -60 0 0 65
0 65 -155 0 -155 0 0 -640z"/>
<path fill="#cc9933" stroke="none" d="M5810 1355 c0 -496 -2 -565 -15 -565
-13 0 -15 68 -15 549 l0 550 -32 3 c-55 5 -46 28 11 28 l51 0 0 -565z"/>
<path fill="#cc9933" stroke="none" d="M6750 1265 l0 -655 -80 0 -80 0 0 -160
0 -160 -485 0 -485 0 0 91 c0 68 3 90 13 87 8 -3 13 -30 15 -76 l3 -72 459 0
460 0 0 160 0 160 80 0 80 0 0 625 0 625 -35 0 c-24 0 -35 5 -35 15 0 11 12
15 45 15 l45 0 0 -655z"/>
<path fill="#cc9933" stroke="none" d="M5760 1330 l0 -540 -25 0 -25 0 0 540
0 540 25 0 25 0 0 -540z"/>
<path fill="#cc9933" stroke="none" d="M6705 1265 l0 -605 -77 0 -78 0 0 -160
0 -160 -440 0 -440 0 0 65 0 65 415 0 414 0 3 158 3 157 78 3 77 3 0 539 0
540 23 0 22 0 0 -605z"/>
<path fill="#cc9933" stroke="none" d="M5490 715 l0 -75 30 0 c20 0 30 -5 30
-16 0 -12 -9 -14 -42 -12 l-43 3 -3 74 c-3 78 1 101 18 101 6 0 10 -30 10 -75z"/>
<path fill="#cc9933" stroke="none" d="M5550 725 c0 -58 -2 -65 -20 -65 -18 0
-20 7 -20 65 0 58 2 65 20 65 18 0 20 -7 20 -65z"/>
<path fill="#cc9933" stroke="none" d="M6820 1590 c0 -470 0 -480 20 -480 18
0 20 -8 22 -97 l3 -98 373 -3 372 -2 0 -60 0 -60 -395 0 -395 0 0 -160 c0
-152 1 -160 20 -160 18 0 20 -8 22 -97 l3 -98 585 0 585 0 3 513 2 512 -54 0
-55 0 -3 63 -3 62 -337 3 -338 2 0 60 0 60 393 2 392 3 3 193 2 192 -54 0 -55
0 -3 63 -3 62 -552 3 -553 2 0 -480z"/>
<path fill="#cc9933" stroke="none" d="M8018 1748 l-3 -173 -392 -3 -393 -2 0
-70 c0 -56 -3 -70 -15 -70 -12 0 -15 16 -15 85 l0 85 395 0 395 0 0 145 0 145
-30 0 c-20 0 -30 5 -30 15 0 11 12 15 45 15 l45 0 -2 -172z"/>
<path fill="#cc9933" stroke="none" d="M7970 1745 l0 -125 -395 0 -395 0 0
-95 c0 -88 -1 -95 -20 -95 -19 0 -20 7 -20 160 l0 160 395 0 395 0 0 60 c0 53
2 60 20 60 19 0 20 -7 20 -125z"/>
<path fill="#cc9933" stroke="none" d="M8018 788 l-3 -493 -562 -3 -563 -2 0
90 c0 53 4 90 10 90 6 0 10 -32 10 -75 l0 -75 540 0 540 0 0 465 0 465 -30 0
c-20 0 -30 5 -30 15 0 11 12 15 45 15 l45 0 -2 -492z"/>
<path fill="#cc9933" stroke="none" d="M7970 785 l0 -445 -520 0 -521 0 3 62
3 63 498 3 497 2 0 380 c0 373 0 380 20 380 20 0 20 -7 20 -445z"/>
<path fill="#cc9933" stroke="none" d="M6910 1035 l0 -75 351 0 c276 0 350 -3
347 -12 -4 -10 -87 -14 -361 -16 l-357 -2 0 90 c0 53 4 90 10 90 6 0 10 -32
10 -75z"/>
<path fill="#cc9933" stroke="none" d="M7608 1043 l3 -63 -341 0 -340 0 0 58
c0 32 3 62 7 65 4 4 155 6 337 5 l331 -3 3 -62z"/>
<path fill="#cc9933" stroke="none" d="M8240 1910 l0 -160 -80 0 -80 0 0 -479
0 -480 23 -3 c21 -3 22 -8 25 -100 l3 -98 54 0 55 0 0 -60 c0 -53 2 -60 20
-60 18 0 20 -8 22 -97 l3 -98 508 -3 507 -2 0 159 0 160 78 3 77 3 3 513 2
512 -54 0 -55 0 -3 63 c-3 56 -5 62 -25 65 -22 3 -23 8 -23 98 l0 94 -55 0
-55 0 0 65 0 65 -475 0 -475 0 0 -160z"/>
<path fill="#cc9933" stroke="none" d="M9280 1835 c0 -69 -3 -85 -15 -85 -12
0 -15 14 -15 70 l0 70 -30 0 c-20 0 -30 5 -30 15 0 11 12 15 45 15 l45 0 0
-85z"/>
<path fill="#cc9933" stroke="none" d="M9230 1810 c0 -53 -2 -60 -20 -60 -18
0 -20 7 -20 60 0 53 2 60 20 60 18 0 20 -7 20 -60z"/>
<path fill="#cc9933" stroke="none" d="M9030 1685 l0 -65 -295 0 -295 0 0
-415 c0 -408 0 -415 -20 -415 -20 0 -20 7 -20 480 l0 480 315 0 315 0 0 -65z"/>
<path fill="#cc9933" stroke="none" d="M9030 1585 c0 -13 -37 -15 -270 -15
l-270 0 0 -390 c0 -340 -2 -390 -15 -390 -13 0 -15 52 -15 405 l0 405 285 0
c247 0 285 -2 285 -15z"/>
<path fill="#cc9933" stroke="none" d="M9438 1108 l-3 -493 -77 -3 -78 -3 0
-159 0 -160 -485 0 -485 0 0 90 c0 53 4 90 10 90 6 0 10 -32 10 -75 l0 -75
460 0 460 0 0 160 0 160 80 0 80 0 0 465 0 465 -30 0 c-20 0 -30 5 -30 15 0
11 12 15 45 15 l45 0 -2 -492z"/>
<path fill="#cc9933" stroke="none" d="M9030 1170 l0 -380 -260 0 -260 0 0
380 0 380 260 0 260 0 0 -380z"/>
<path fill="#cc9933" stroke="none" d="M9390 1105 l0 -445 -80 0 -80 0 0 -160
0 -160 -440 0 -441 0 3 62 3 63 418 3 417 2 0 160 0 160 80 0 80 0 0 380 c0
373 0 380 20 380 20 0 20 -7 20 -445z"/>
<path fill="#cc9933" stroke="none" d="M8170 715 l0 -75 35 0 c24 0 35 -5 35
-15 0 -11 -12 -15 -45 -15 l-45 0 0 90 c0 53 4 90 10 90 6 0 10 -32 10 -75z"/>
<path fill="#cc9933" stroke="none" d="M8240 725 c0 -58 -2 -65 -20 -65 -18 0
-20 7 -20 65 0 58 2 65 20 65 18 0 20 -7 20 -65z"/>
<path fill="#cc9933" stroke="none" d="M9500 1271 l0 -800 23 -3 c21 -3 22 -8
25 -100 l3 -98 189 0 190 0 0 480 0 480 25 0 c24 0 25 -3 25 -60 0 -53 2 -60
20 -60 18 0 20 -8 22 -97 l3 -98 53 -3 52 -3 0 -60 c0 -56 1 -59 25 -59 l25 0
0 -100 0 -100 55 0 55 0 0 -59 c0 -54 2 -60 23 -63 21 -3 22 -8 25 -101 l3
-97 347 2 347 3 3 833 2 832 -60 0 -60 0 0 65 0 65 -155 0 -155 0 0 -640 0
-640 -25 0 c-25 0 -25 0 -25 95 l0 95 -55 0 -55 0 0 65 c0 58 -2 65 -20 65
-19 0 -20 7 -20 95 l0 95 -60 0 -60 0 0 65 c0 58 -2 65 -20 65 -19 0 -20 7
-20 95 l0 95 -55 0 -54 0 -3 63 c-3 56 -5 62 -25 65 -22 3 -23 8 -23 98 l0 94
-55 0 -55 0 0 65 0 65 -240 0 -240 0 0 -799z"/>
<path fill="#cc9933" stroke="none" d="M10070 1835 c0 -69 -3 -85 -15 -85 -12
0 -15 14 -15 70 l0 70 -30 0 c-20 0 -30 5 -30 15 0 11 12 15 45 15 l45 0 0
-85z"/>
<path fill="#cc9933" stroke="none" d="M11018 1108 l-3 -813 -327 -3 -328 -2
0 90 c0 53 4 90 10 90 6 0 10 -32 10 -75 l0 -75 305 0 305 0 0 784 0 785 -32
3 c-55 5 -46 28 11 28 l51 0 -2 -812z"/>
<path fill="#cc9933" stroke="none" d="M10020 1810 c0 -53 -2 -60 -20 -60 -18
0 -20 7 -20 60 0 53 2 60 20 60 18 0 20 -7 20 -60z"/>
<path fill="#cc9933" stroke="none" d="M10970 1105 l0 -765 -280 0 -280 0 0
65 0 65 255 0 255 0 0 700 0 700 25 0 25 0 0 -765z"/>
<path fill="#cc9933" stroke="none" d="M10230 1515 c0 -69 -3 -85 -15 -85 -12
0 -15 14 -15 70 l0 70 -30 0 c-20 0 -30 5 -30 15 0 11 12 15 45 15 l45 0 0
-85z"/>
<path fill="#cc9933" stroke="none" d="M10180 1490 c0 -53 -2 -60 -20 -60 -18
0 -20 7 -20 60 0 53 2 60 20 60 18 0 20 -7 20 -60z"/>
<path fill="#cc9933" stroke="none" d="M9978 1363 l3 -63 -62 0 -61 0 3 -480
4 -480 -122 0 -123 0 0 65 0 65 100 0 100 0 0 480 0 481 78 -3 77 -3 3 -62z"/>
<path fill="#cc9933" stroke="none" d="M9978 1268 c-3 -7 -19 -14 -36 -16
l-32 -3 0 -480 0 -479 -170 0 -170 0 0 90 c0 53 4 90 10 90 6 0 10 -32 10 -75
l0 -75 150 0 150 0 0 480 0 480 46 0 c32 0 44 -4 42 -12z"/>
<path fill="#cc9933" stroke="none" d="M10380 1195 c0 -50 -4 -85 -10 -85 -6
0 -10 30 -10 69 l0 70 -32 3 c-52 5 -47 28 6 28 l46 0 0 -85z"/>
<path fill="#cc9933" stroke="none" d="M10340 1170 c0 -57 -1 -60 -25 -60 -24
0 -25 3 -25 60 0 57 1 60 25 60 24 0 25 -3 25 -60z"/>
<path fill="#cc9933" stroke="none" d="M10070 1035 l0 -75 30 0 c20 0 30 -5
30 -16 0 -12 -9 -14 -42 -12 l-43 3 -3 74 c-3 78 1 101 18 101 6 0 10 -30 10
-75z"/>
<path fill="#cc9933" stroke="none" d="M10130 1045 c0 -58 -2 -65 -20 -65 -18
0 -20 7 -20 65 0 58 2 65 20 65 18 0 20 -7 20 -65z"/>
<path fill="#cc9933" stroke="none" d="M10540 875 c0 -50 -4 -85 -10 -85 -6 0
-10 30 -10 70 l0 70 -35 0 c-24 0 -35 5 -35 15 0 11 12 15 45 15 l45 0 0 -85z"/>
<path fill="#cc9933" stroke="none" d="M10500 850 c0 -57 -1 -60 -25 -60 -24
0 -25 3 -25 60 0 57 1 60 25 60 24 0 25 -3 25 -60z"/>
<path fill="#cc9933" stroke="none" d="M10228 712 l3 -72 29 0 c20 0 30 -5 30
-15 0 -11 -12 -15 -45 -15 l-45 0 0 91 c0 68 3 90 13 87 8 -3 13 -30 15 -76z"/>
<path fill="#cc9933" stroke="none" d="M10290 725 c0 -58 -2 -65 -20 -65 -18
0 -20 7 -20 65 0 58 2 65 20 65 18 0 20 -7 20 -65z"/>
</g>
</svg>